<?xml version="1.0" standalone="no"?>
<!DOCTYPE svg PUBLIC "-//W3C//DTD SVG 20010904//EN"
 "http://www.w3.org/TR/2001/REC-SVG-20010904/DTD/svg10.dtd">
<svg version="1.0" xmlns="http://www.w3.org/2000/svg"
 width="384.000000pt" height="384.000000pt" viewBox="0 0 384.000000 384.000000"
 preserveAspectRatio="xMidYMid meet">
<metadata>
Created by potrace 1.14, written by Peter Selinger 2001-2017
</metadata>
<g transform="translate(0.000000,384.000000) scale(0.100000,-0.100000)"
fill="#000000" stroke="none">
<path d="M1183 2729 c-134 -42 -255 -158 -304 -290 l-23 -64 -4 -587 c-3 -655
-5 -635 65 -664 28 -12 42 -13 69 -4 71 24 68 -2 74 650 5 577 5 586 27 626
12 22 40 57 63 78 83 75 39 71 775 71 l660 0 51 -27 c29 -15 68 -46 88 -70 65
-75 66 -87 66 -609 l0 -467 88 -4 c48 -3 95 -8 105 -13 17 -7 18 13 15 501 -4
497 -4 510 -26 568 -33 88 -63 135 -129 197 -65 62 -110 88 -192 113 -48 14
-137 16 -730 15 -644 0 -679 -1 -738 -20z"/>
<path d="M1992 2261 c-116 -43 -207 -137 -242 -250 -15 -47 -20 -91 -20 -173
0 -108 0 -110 29 -139 41 -41 101 -41 142 0 28 29 29 32 29 128 0 116 20 167
83 217 35 28 46 31 106 31 84 0 137 -31 170 -97 19 -40 21 -62 21 -206 0 -215
15 -252 104 -252 25 0 45 9 68 29 l33 29 3 145 c2 80 -1 175 -6 211 -22 138
-101 250 -220 308 -56 28 -77 33 -156 35 -71 3 -102 -1 -144 -16z"/>
<path d="M1568 1845 c-149 -55 -251 -206 -251 -370 1 -132 60 -246 165 -318
110 -75 71 -72 773 -75 442 -2 641 0 668 8 25 7 45 22 57 43 24 39 25 59 5 97
-32 62 -13 60 -700 60 -594 0 -628 1 -663 19 -46 23 -67 46 -87 94 -20 48 -19
103 4 152 20 45 70 92 107 101 28 7 28 3 9 47 -8 20 -15 64 -15 97 0 67 -4 70
-72 45z"/>
</g>
</svg>