<svg width="265" height="203" viewBox="0 0 265 203" fill="none" xmlns="http://www.w3.org/2000/svg">
<g clip-path="url(#clip0_273_793)">
<path d="M106.04 42.0975H105.073V15.4328C105.073 13.4062 104.677 11.3993 103.906 9.52694C103.136 7.65455 102.007 5.95324 100.584 4.52017C99.1603 3.08711 97.4705 1.95033 95.6109 1.17476C93.7512 0.399186 91.758 1.71715e-06 89.7452 0H33.6365C29.5713 -7.80273e-06 25.6726 1.62593 22.798 4.52014C19.9235 7.41435 18.3086 11.3397 18.3086 15.4328V161.717C18.3086 163.744 18.7051 165.751 19.4754 167.623C20.2456 169.496 21.3747 171.197 22.798 172.63C24.2213 174.063 25.9111 175.2 27.7707 175.976C29.6304 176.751 31.6236 177.15 33.6364 177.15H89.7451C93.8103 177.15 97.709 175.524 100.584 172.63C103.458 169.736 105.073 165.811 105.073 161.718V61.0779H106.04V42.0975Z" fill="#3F3D56"/>
<path d="M90.3636 4.01514H83.0396C83.3764 4.84655 83.505 5.7486 83.414 6.64183C83.323 7.53505 83.0152 8.39204 82.5178 9.13729C82.0203 9.88254 81.3485 10.4932 80.5615 10.9154C79.7744 11.3377 78.8963 11.5586 78.0045 11.5586H45.8606C44.9688 11.5586 44.0907 11.3377 43.3036 10.9154C42.5166 10.4932 41.8447 9.88255 41.3473 9.1373C40.8498 8.39204 40.5421 7.53506 40.4511 6.64183C40.3601 5.7486 40.4886 4.84655 40.8254 4.01514H33.9848C32.4816 4.01514 30.9931 4.31324 29.6043 4.89243C28.2155 5.47161 26.9537 6.32054 25.8907 7.39074C24.8278 8.46094 23.9847 9.73145 23.4094 11.1297C22.8342 12.528 22.5381 14.0267 22.5381 15.5402V161.61C22.5381 163.124 22.8342 164.622 23.4094 166.021C23.9847 167.419 24.8278 168.689 25.8907 169.76C26.9537 170.83 28.2155 171.679 29.6043 172.258C30.9931 172.837 32.4816 173.135 33.9848 173.135H90.3636C91.8668 173.135 93.3553 172.837 94.7441 172.258C96.1329 171.679 97.3947 170.83 98.4577 169.76C99.5206 168.689 100.364 167.419 100.939 166.021C101.514 164.622 101.81 163.124 101.81 161.61V15.5402C101.81 14.0267 101.514 12.528 100.939 11.1297C100.364 9.73145 99.5206 8.46094 98.4577 7.39074C97.3947 6.32054 96.1329 5.47161 94.7441 4.89243C93.3553 4.31324 91.8668 4.01513 90.3636 4.01514Z" fill="white"/>
<path d="M124.024 177.175H0.324669C0.238562 177.175 0.15598 177.141 0.0950932 177.08C0.0342059 177.018 0 176.935 0 176.848C0 176.762 0.0342059 176.679 0.0950932 176.617C0.15598 176.556 0.238562 176.521 0.324669 176.521H124.024C124.11 176.521 124.192 176.556 124.253 176.617C124.314 176.679 124.348 176.762 124.348 176.848C124.348 176.935 124.314 177.018 124.253 177.08C124.192 177.141 124.11 177.175 124.024 177.175Z" fill="#CBCBCB"/>
<path d="M62.1742 113C77.3162 113 89.5912 100.641 89.5912 85.3953C89.5912 70.1496 77.3162 57.7905 62.1742 57.7905C47.0321 57.7905 34.7571 70.1496 34.7571 85.3953C34.7571 100.641 47.0321 113 62.1742 113Z" fill="#F5683A"/>
<path d="M59.4573 95.9254C58.8405 95.9265 58.2401 95.7256 57.7466 95.353L57.716 95.3299L51.2726 90.3672C50.9742 90.1368 50.7238 89.8495 50.5356 89.5218C50.3474 89.194 50.2253 88.8321 50.176 88.4567C50.1268 88.0814 50.1514 87.6999 50.2486 87.3342C50.3458 86.9685 50.5135 86.6256 50.7423 86.3251C50.9711 86.0246 51.2564 85.7725 51.582 85.5831C51.9076 85.3936 52.267 85.2706 52.6398 85.221C53.0126 85.1714 53.3914 85.1963 53.7547 85.2941C54.1179 85.3919 54.4585 85.5608 54.7569 85.7912L58.9304 89.0135L68.7926 76.0591C69.0213 75.7588 69.3065 75.5067 69.6319 75.3174C69.9574 75.128 70.3167 75.005 70.6893 74.9555C71.0619 74.9059 71.4406 74.9307 71.8037 75.0285C72.1668 75.1263 72.5072 75.2952 72.8055 75.5254L72.8064 75.5261L72.7452 75.6116L72.808 75.5261C73.4098 75.9917 73.8036 76.6788 73.9028 77.4364C74.0021 78.1941 73.7987 78.9604 73.3375 79.5673L61.7373 94.7977C61.469 95.1487 61.1239 95.4326 60.7289 95.6276C60.334 95.8226 59.8997 95.9233 59.4598 95.922L59.4573 95.9254Z" fill="white"/>
<path d="M225.4 179.889C225.734 179.346 226.126 178.842 226.571 178.386C226.754 178.195 226.947 178.015 227.147 177.839C228.359 176.753 229.837 176.011 231.428 175.69C233.019 175.37 234.667 175.482 236.201 176.014C237.735 176.547 239.101 177.482 240.157 178.722C241.214 179.963 241.923 181.464 242.212 183.072C243.551 178.086 240.065 173.175 236.561 169.403C233.055 165.632 229.047 161.495 229.067 156.328C229.077 153.452 230.474 150.887 232.583 148.986C232.648 148.928 232.713 148.87 232.78 148.815C235.329 146.615 238.609 145.464 241.964 145.592C248.197 145.928 253.64 150.146 257.42 155.15C263.503 163.2 266.169 174.501 261.91 183.665C258.164 191.725 250.174 196.511 242.019 200.359C240.881 200.896 239.744 201.418 238.61 201.923C238.603 201.925 238.594 201.93 238.587 201.932C238.532 201.956 238.478 201.98 238.427 202.005C238.192 202.109 237.958 202.213 237.726 202.316L237.834 202.387L238.169 202.605C238.053 202.534 237.938 202.465 237.822 202.395C237.787 202.373 237.75 202.353 237.716 202.331C233.711 199.912 229.65 197.352 226.883 193.575C224.014 189.653 222.86 184.035 225.4 179.889Z" fill="#F1F1F1"/>
<path d="M252.121 170.78C253.008 172.812 253.596 174.962 253.867 177.164C254.079 179.128 253.999 181.113 253.629 183.053C252.834 187.039 251.099 190.775 248.572 193.945C246.665 196.353 244.463 198.508 242.019 200.359C240.881 200.896 239.744 201.418 238.61 201.923C238.603 201.925 238.594 201.93 238.587 201.932C238.532 201.956 238.478 201.98 238.426 202.005C238.192 202.109 237.958 202.213 237.726 202.316L237.834 202.387L238.169 202.605C238.053 202.534 237.938 202.466 237.822 202.395C237.787 202.373 237.75 202.353 237.716 202.332C238.597 199.227 238.727 195.956 238.094 192.791C237.461 189.626 236.083 186.66 234.077 184.141C232.06 181.654 229.488 179.683 226.571 178.387C226.754 178.195 226.947 178.015 227.147 177.839C228.27 178.359 229.346 178.978 230.362 179.688C233.994 182.216 236.722 185.854 238.141 190.063C239.407 193.883 239.566 197.987 238.597 201.893C238.798 201.761 239 201.625 239.196 201.49C242.927 198.957 246.366 195.914 248.956 192.183C251.19 189.03 252.619 185.372 253.118 181.531C253.615 177.336 252.572 173.211 250.712 169.467C248.658 165.463 246.069 161.759 243.019 158.461C239.954 155.071 236.49 152.072 232.702 149.53C232.617 149.472 232.557 149.383 232.534 149.282C232.512 149.18 232.53 149.074 232.583 148.986C232.624 148.905 232.694 148.844 232.78 148.815C232.823 148.804 232.868 148.803 232.912 148.812C232.956 148.821 232.997 148.839 233.033 148.867C233.5 149.181 233.964 149.498 234.422 149.824C238.236 152.544 241.701 155.73 244.735 159.309C247.667 162.759 250.336 166.593 252.121 170.78Z" fill="white"/>
<path d="M170.465 12.8178C173.681 12.8178 176.288 10.193 176.288 6.95528C176.288 3.71751 173.681 1.09277 170.465 1.09277C167.249 1.09277 164.642 3.71751 164.642 6.95528C164.642 10.193 167.249 12.8178 170.465 12.8178Z" fill="#F1F1F1"/>
<path d="M242.866 91.2716C244.827 91.2716 246.416 89.6713 246.416 87.6973C246.416 85.7233 244.827 84.123 242.866 84.123C240.906 84.123 239.316 85.7233 239.316 87.6973C239.316 89.6713 240.906 91.2716 242.866 91.2716Z" fill="#F1F1F1"/>
<path d="M138.972 101.079C140.933 101.079 142.522 99.4784 142.522 97.5044C142.522 95.5304 140.933 93.9302 138.972 93.9302C137.011 93.9302 135.422 95.5304 135.422 97.5044C135.422 99.4784 137.011 101.079 138.972 101.079Z" fill="#F1F1F1"/>
<path d="M140.976 203H264.675C264.761 203 264.844 202.966 264.905 202.904C264.966 202.843 265 202.76 265 202.673C265 202.586 264.966 202.503 264.905 202.442C264.844 202.381 264.761 202.346 264.675 202.346H140.976C140.89 202.346 140.808 202.381 140.747 202.442C140.686 202.503 140.652 202.586 140.652 202.673C140.652 202.76 140.686 202.843 140.747 202.904C140.808 202.966 140.89 203 140.976 203Z" fill="#CBCBCB"/>
<path d="M251.025 31.589C251.187 30.4279 250.921 29.2472 250.276 28.2705C249.632 27.2939 248.654 26.5892 247.528 26.2899C246.402 25.9907 245.206 26.1178 244.167 26.647C243.128 27.1762 242.317 28.0709 241.889 29.1615L231.852 40.7479L234.797 49.0303L244.892 35.492C245.551 35.7044 246.248 35.7689 246.934 35.6808C247.62 35.5927 248.278 35.3542 248.863 34.9821C249.448 34.61 249.944 34.1133 250.318 33.5271C250.691 32.9408 250.932 32.2793 251.025 31.589Z" fill="#FFB7B7"/>
<path d="M209.416 76.6722L242.736 40.8681L238.242 33.6738L196.449 69.2606L209.416 76.6722Z" fill="#3F3D56"/>
<path d="M201.979 54.9181C208.434 54.9181 213.667 49.6493 213.667 43.15C213.667 36.6506 208.434 31.3818 201.979 31.3818C195.524 31.3818 190.291 36.6506 190.291 43.15C190.291 49.6493 195.524 54.9181 201.979 54.9181Z" fill="#2F2E41"/>
<path d="M202.919 36.5018C205.434 33.9339 208.477 31.9523 211.835 30.6965C213.991 29.8925 216.337 29.3958 218.59 29.8524C220.843 30.309 222.974 31.8785 223.603 34.1045C224.117 35.9248 223.586 37.8846 222.788 39.5981C221.991 41.3116 220.926 42.9005 220.28 44.678C219.622 46.4916 219.424 48.442 219.705 50.3522C219.985 52.2624 220.735 54.0718 221.886 55.6163C223.037 57.1607 224.552 58.3913 226.296 59.1962C228.039 60.0012 229.954 60.3551 231.868 60.2257C229.654 60.5246 227.613 61.5722 225.449 62.1298C223.284 62.6874 220.73 62.6496 219.122 61.0886C217.42 59.437 217.386 56.7517 217.469 54.3734C217.591 50.8381 217.713 47.3028 217.836 43.7674C217.898 41.9645 217.951 40.1037 217.305 38.4209C216.66 36.7381 215.125 35.2646 213.333 35.2799C211.975 35.2915 210.773 36.1198 209.684 36.9366C208.595 37.7534 207.443 38.6249 206.09 38.7464C204.737 38.8679 203.193 37.86 203.294 36.4965L202.919 36.5018Z" fill="#2F2E41"/>
<path d="M157.587 122.167C156.465 122.481 155.268 122.369 154.222 121.854C153.176 121.338 152.354 120.454 151.912 119.369C151.47 118.284 151.439 117.074 151.825 115.967C152.21 114.861 152.985 113.935 154.003 113.365L164.1 101.832L172.641 103.689L160.629 115.535C160.924 116.165 161.079 116.852 161.082 117.549C161.084 118.245 160.936 118.934 160.646 119.566C160.356 120.198 159.932 120.759 159.403 121.208C158.875 121.658 158.255 121.985 157.587 122.167Z" fill="#FFB7B7"/>
<path d="M190.808 80.8746L165.641 112.681L157.969 109.135L187.55 62.7671L190.808 80.8746Z" fill="#3F3D56"/>
<path d="M170.727 176.918L164.729 176.823L165.45 197.406H170.726L170.727 176.918Z" fill="#FFB7B7"/>
<path d="M172.071 195.672L161.682 195.671H161.681C159.925 195.671 158.241 196.374 156.999 197.624C155.758 198.874 155.06 200.57 155.06 202.338V202.554L172.071 202.555L172.071 195.672Z" fill="#2F2E41"/>
<path d="M210.439 171.458L203.887 175.694L216.993 191.569L221.433 188.699L210.439 171.458Z" fill="#FFB7B7"/>
<path d="M221.635 186.508L212.892 192.159L212.891 192.16C211.414 193.115 210.373 194.622 209.999 196.349C209.625 198.077 209.948 199.883 210.897 201.371L211.013 201.553L225.328 192.3L221.635 186.508Z" fill="#2F2E41"/>
<path d="M212.774 108.607C212.774 108.607 198.216 59.9235 193.537 59.2656C188.858 58.6077 181.32 71.7571 181.32 71.7571C171.547 84.3125 161.469 124.982 161.469 124.982C161.469 124.982 178.269 126.04 190.55 132.619C202.832 139.198 217.325 132.286 217.325 132.286L212.774 108.607Z" fill="#3F3D56"/>
<path opacity="0.1" d="M212.774 108.606C212.774 108.606 198.216 59.9232 193.537 59.2654C188.858 58.6075 183.235 71.8903 183.235 71.8903C178.365 92.1576 161.469 124.982 161.469 124.982C161.469 124.982 178.269 126.04 190.55 132.619C202.832 139.198 217.325 132.286 217.325 132.286L212.774 108.606Z" fill="black"/>
<path d="M200.83 94.0408V118.504L203.689 153.94L217.975 180.745L211.156 185.649L191.676 160.151L183.972 134.834L171.872 190.879L162.781 190.225L169.094 112.519L181.075 90.647L200.83 94.0408Z" fill="#2F2E41"/>
<path d="M186.151 70.38C181.606 74.9564 185.827 79.8598 185.827 79.8598L180.632 91.6279L201.086 97.1851L208.234 65.026L203.364 59.7958C193.624 59.4689 193.619 59.2656 193.619 59.2656C191.912 60.9471 186.151 70.38 186.151 70.38Z" fill="#F5683A"/>
<path d="M209.058 61.6942C208.129 61.0038 207.073 60.5058 205.952 60.2291C204.83 59.9524 203.665 59.9025 202.525 60.0823C201.384 60.2621 200.29 60.668 199.306 61.2764C198.322 61.8849 197.468 62.6839 196.793 63.6271C191.651 70.8358 186.896 82.4761 193.447 96.9936C203.966 120.304 213.12 132.237 216.841 132.236C217.004 132.237 217.166 132.212 217.32 132.16C219.61 131.378 222.922 127.475 223.522 124.036C223.736 122.805 223.685 121.091 222.223 119.913C218.023 116.531 210.484 106 208.132 92.1394C206.832 84.4804 209.353 77.5038 211.696 72.9999C212.686 71.1363 212.976 68.976 212.512 66.9149C212.048 64.8538 210.862 63.0301 209.171 61.778L209.058 61.6942Z" fill="#3F3D56"/>
<path d="M202.58 53.7619C206.75 51.4671 208.282 46.2036 206.003 42.0057C203.724 37.8077 198.496 36.2649 194.327 38.5597C190.157 40.8545 188.625 46.118 190.904 50.316C193.183 54.5139 198.411 56.0567 202.58 53.7619Z" fill="#FFB7B7"/>
<path d="M186.354 45.5058H198.777L198.905 43.7099L199.542 45.5058H201.455L201.707 41.9464L202.97 45.5058H206.671V45.3295C206.668 42.8515 205.689 40.4758 203.949 38.7235C202.209 36.9713 199.849 35.9857 197.388 35.9829H195.637C193.175 35.9857 190.816 36.9713 189.076 38.7235C187.335 40.4757 186.356 42.8515 186.354 45.3295V45.5058Z" fill="#2F2E41"/>
<path d="M204.794 51.9608L210.096 50.2287V37.2656H200.082L200.33 37.5149C203.779 40.9835 207.616 53.2897 204.794 51.9608Z" fill="#2F2E41"/>
</g>
<defs>
<clipPath id="clip0_273_793">
<rect width="265" height="203" fill="white"/>
</clipPath>
</defs>
</svg>
