<svg width="191" height="191" viewBox="0 0 191 191" fill="none" xmlns="http://www.w3.org/2000/svg">
<g clip-path="url(#clip0_604_1531)">
<path d="M174.752 174.464C174.752 174.502 174.744 174.539 174.729 174.574C174.715 174.609 174.693 174.641 174.666 174.668C174.638 174.694 174.606 174.716 174.57 174.73C174.534 174.744 174.496 174.752 174.457 174.752H17.2842C17.2061 174.752 17.1312 174.721 17.076 174.667C17.0208 174.613 16.9897 174.54 16.9897 174.464C16.9897 174.388 17.0208 174.314 17.076 174.26C17.1312 174.206 17.2061 174.176 17.2842 174.176H174.457C174.496 174.176 174.534 174.183 174.57 174.198C174.606 174.212 174.638 174.233 174.666 174.26C174.693 174.287 174.715 174.319 174.729 174.354C174.744 174.389 174.752 174.426 174.752 174.464Z" fill="#CCCCCC"/>
<path d="M144.921 24.1172C144.727 23.0617 144.247 22.0764 143.531 21.264C142.512 20.1309 141.275 19.2049 139.89 18.5391C138.505 17.8732 137 17.4804 135.46 17.3832C133.919 17.286 132.375 17.4862 130.914 17.9725C129.453 18.4587 128.104 19.2214 126.945 20.2171L126.846 20.3041C125.462 18.9931 123.775 18.0275 121.928 17.4891C120.081 16.9507 118.129 16.8554 116.236 17.2113C114.344 17.5672 112.567 18.3638 111.056 19.5335C109.545 20.7033 108.346 22.2117 107.558 23.931C106.835 25.5044 106.503 27.2229 106.59 28.9457C106.678 30.6685 107.182 32.3465 108.061 33.8423C108.455 34.5167 108.918 35.1502 109.444 35.7331C109.985 36.3376 124.612 52.2406 124.758 52.4002C124.775 52.42 124.797 52.4359 124.821 52.4467C124.846 52.4576 124.872 52.4632 124.899 52.463C124.904 52.463 124.911 52.4606 124.919 52.4606C124.929 52.4605 124.939 52.458 124.948 52.4534C124.997 52.4419 125.038 52.4124 125.065 52.3711L125.141 52.2478L125.233 52.0955L126.586 49.8855C130.339 43.7559 135.399 37.9722 141.626 32.6962C142.027 32.3559 142.398 31.9839 142.737 31.5839C144.069 30.0271 144.873 28.1039 145.037 26.0806C145.084 25.424 145.045 24.7642 144.921 24.1172Z" fill="#F5683A"/>
<path d="M77.8161 148.439L80.5707 139.671C77.2564 136.106 73.1018 133.385 68.4675 131.746C72.9952 139.077 68.6079 148.64 70.4361 157.014C71.0268 159.622 72.2103 162.066 73.899 164.166C75.5877 166.266 77.7382 167.968 80.1911 169.145L84.3713 174.207C86.5627 170.465 87.898 166.303 88.2852 162.008C88.6725 157.713 88.1024 153.388 86.6144 149.329C85.7565 147.06 84.6097 144.906 83.201 142.917C80.717 145.771 77.8161 148.439 77.8161 148.439Z" fill="#F2F2F2"/>
<path d="M62.6698 149.559L61.1343 140.51C56.5411 138.764 51.5811 138.14 46.6851 138.693C54.0828 143.281 54.5199 153.753 59.9777 160.451C61.6964 162.528 63.8711 164.199 66.3407 165.343C68.8103 166.486 71.5116 167.072 74.2442 167.056L80.2955 169.765C80.5494 165.461 79.8455 161.154 78.2322 157.141C76.619 153.128 74.1348 149.505 70.9508 146.52C69.1476 144.864 67.1382 143.435 64.9698 142.269C64.0489 145.906 62.6698 149.559 62.6698 149.559Z" fill="#F2F2F2"/>
<path d="M92.9104 90.2242L92.1499 91.953L93.3929 98.0937L106.074 96.3704L105.972 88.8829L105.718 87.2428L92.9104 90.2242Z" fill="#FFB6B6"/>
<path d="M86.3589 169.806H89.1565L90.4878 159.26H86.3589V169.806Z" fill="#FFB6B6"/>
<path d="M94.1642 172.413L89.9164 169.545V167.672L89.4226 167.702L86.3587 167.88L85.4469 167.932L84.8829 174.544H86.889L87.2453 172.693L88.1628 174.544H93.4852C93.7402 174.543 93.9884 174.464 94.1937 174.316C94.399 174.168 94.5506 173.96 94.6264 173.722C94.7022 173.484 94.6982 173.229 94.6151 172.994C94.532 172.758 94.374 172.555 94.1642 172.413Z" fill="#2F2E41"/>
<path d="M102.073 169.806H104.871L106.517 154.28L101.26 153.973L102.073 169.806Z" fill="#FFB6B6"/>
<path d="M109.879 172.413L105.631 169.545V167.672L105.093 167.702L101.975 167.886L101.162 167.932L100.598 174.544H102.604L102.96 172.693L103.878 174.544H109.2C109.455 174.543 109.703 174.464 109.909 174.316C110.114 174.168 110.266 173.96 110.341 173.722C110.417 173.484 110.413 173.229 110.33 172.994C110.247 172.758 110.089 172.555 109.879 172.413Z" fill="#2F2E41"/>
<path d="M85.1716 160.712H85.1825L85.7205 143.564C85.3723 142.907 85.1956 142.177 85.2061 141.438C85.2166 140.699 85.414 139.973 85.7807 139.327L85.8577 139.19L85.658 138.285C85.4015 137.123 85.5192 135.911 85.995 134.817L86.4969 118.821C84.7037 107.463 93.2497 100.055 93.2497 100.055L92.4642 94.1023L106.287 94.4093L106.052 100.055L108.8 109.284C110.246 123.057 110.332 136.55 108.853 149.72C108.85 149.758 108.856 149.796 108.87 149.831C109.02 150.278 109.073 150.75 109.025 151.217C108.977 151.684 108.83 152.137 108.592 152.545C108.53 152.649 108.488 152.763 108.467 152.882C108.162 155.19 108.122 152.27 107.718 154.558L107.797 154.597C108.08 154.693 108.201 155.076 108.068 155.453C107.935 155.83 107.597 156.059 107.314 155.963L99.9251 156.04C99.6421 155.945 99.5207 155.562 99.6539 155.184C99.7871 154.807 100.125 154.579 100.408 154.674L100.867 154.902L100.098 152.442L99.8286 152.196C99.6995 152.078 99.5992 151.934 99.5354 151.773C99.4717 151.611 99.446 151.438 99.4603 151.266C99.4746 151.094 99.5286 150.927 99.6182 150.779C99.7078 150.63 99.8306 150.503 99.9776 150.407L100.201 143.267L100.31 140.245L100.086 136.816L99.0494 121.393L95.1268 140.359L91.12 160.903C91.2135 160.985 91.2837 161.089 91.324 161.206C91.3642 161.323 91.3731 161.447 91.3498 161.568C91.313 161.737 91.2171 161.888 91.0787 161.996C90.9404 162.103 90.7681 162.16 90.5914 162.157H85.152C85.038 162.157 84.9255 162.131 84.8234 162.081C84.7212 162.032 84.6321 161.96 84.5631 161.871C84.494 161.782 84.4469 161.679 84.4253 161.57C84.4037 161.461 84.4082 161.348 84.4385 161.24C84.4844 161.086 84.5811 160.95 84.7136 160.855C84.846 160.759 85.007 160.709 85.1716 160.712Z" fill="#2F2E41"/>
<path d="M90.0085 61.0455C90.0081 62.1403 90.2827 63.2185 90.8082 64.1854C91.3337 65.1523 92.094 65.9784 93.0223 66.591C93.9507 67.2037 95.0188 67.5843 96.1328 67.6994C97.2468 67.8145 98.3727 67.6605 99.4116 67.2511C100.451 66.8416 101.371 66.1892 102.091 65.351C102.812 64.5128 103.311 63.5146 103.545 62.4439C103.779 61.3731 103.74 60.2627 103.432 59.21C103.124 58.1574 102.557 57.1946 101.779 56.4063L101.747 56.3743C101.692 56.3181 101.637 56.2619 101.58 56.2084L101.579 56.2082L101.578 56.2076L101.577 56.2067L101.577 56.2057C101.498 56.1497 101.426 56.0861 101.361 56.0158C100.437 54.754 99.3894 53.6961 96.8521 54.357C93.1993 55.3086 90.0085 57.3508 90.0085 61.0455Z" fill="#2F2E41"/>
<path d="M127.602 58.1823C127.617 58.5401 127.552 58.897 127.411 59.2276C127.271 59.5583 127.057 59.8547 126.786 60.0961C126.516 60.3375 126.194 60.5179 125.844 60.6246C125.494 60.7314 125.125 60.7619 124.762 60.7139L107.113 74.8703L104.417 70.2394L122.613 57.7803C122.736 57.1894 123.076 56.663 123.57 56.3009C124.063 55.9388 124.675 55.7662 125.29 55.8157C125.905 55.8653 126.48 56.1335 126.906 56.5697C127.332 57.0059 127.58 57.5797 127.602 58.1823Z" fill="#FFB6B6"/>
<path d="M99.6603 79.045C99.6603 79.045 100.235 80.2109 102.471 78.5548C104.262 77.2289 112.808 71.5084 114.707 69.0903C115.105 69.2662 115.552 69.3076 115.977 69.2079C116.402 69.1083 116.781 68.8733 117.054 68.5399L112.385 64.1461C110.92 64.2428 110.905 65.201 111.03 65.7513L107.277 67.2086L97.5035 72.6967L99.2294 78.2094L99.6603 79.045Z" fill="#E6E6E6"/>
<path d="M98.5382 68.2016C101.708 68.2016 104.277 65.6906 104.277 62.5931C104.277 59.4955 101.708 56.9845 98.5382 56.9845C95.3688 56.9845 92.7996 59.4955 92.7996 62.5931C92.7996 65.6906 95.3688 68.2016 98.5382 68.2016Z" fill="#FFB7B7"/>
<path d="M106.366 90.4127L106.425 87.284C106.658 86.9714 108.611 84.2429 108.173 81.5173C107.968 80.234 107.256 79.1563 106.061 78.3172L105.289 76.5623L104.147 73.9682L100.805 72.0241L100.343 71.1027L99.9609 70.3377L95.3512 69.8879L94.2149 71.3824L94.1924 71.3851C93.1482 71.617 92.1674 72.066 91.3166 72.7014C90.3824 73.394 89.6252 74.2888 89.1044 75.3155C88.5835 76.3422 88.3131 77.4729 88.3145 78.6189L88.3425 82.2549L88.3481 82.7759L88.3509 83.2805L91.2268 90.846L91.3362 91.1394L92.4641 94.1036L92.2705 94.4162C92.0621 94.7564 91.9851 95.1582 92.0536 95.549C92.122 95.9398 92.3313 96.2938 92.6437 96.5468L92.7784 98.4005L93.0224 98.3347L94.4113 97.9563L104.916 95.0908C105.311 94.9828 105.661 94.7529 105.912 94.4354C105.921 94.424 105.929 94.4121 105.937 94.3997C105.979 94.3493 106.015 94.2951 106.047 94.238C106.285 93.6484 106.31 93.4894 106.313 93.3248C106.662 92.9365 106.863 92.4429 106.884 91.9266C106.904 91.4104 106.742 90.9029 106.425 90.4895L106.366 90.4127Z" fill="#E6E6E6"/>
<path d="M92.5324 64.0635C92.5844 64.0554 92.6364 64.0447 92.6884 64.0367C93.5836 63.8815 94.4787 63.729 95.3711 63.5712L95.4532 61.5941L96.5345 63.3652C99.0009 64.1651 101.309 63.713 103.479 62.7151C104.195 62.3828 104.89 62.0085 105.56 61.5941C105.78 58.2504 104.397 56.1098 101.823 56.3343C101.729 56.3425 101.662 56.2487 101.58 56.2085L101.579 56.2083L101.578 56.2077L101.577 56.2068L101.577 56.2058C101.437 56.1416 101.295 56.0801 101.153 56.0239C100.038 55.5983 98.823 55.4905 97.6484 55.7131C96.4738 55.9356 95.3879 56.4795 94.517 57.2813C92.7651 58.916 91.9767 61.6155 92.5324 64.0635Z" fill="#2F2E41"/>
<path d="M96.2715 54.5183C96.2141 54.7115 96.1006 54.8843 95.9447 55.0157C95.7888 55.1472 95.5973 55.2315 95.3933 55.2587C94.6217 56.191 93.7379 57.1781 92.5286 57.3646C92.183 57.4363 91.8224 57.3754 91.5214 57.1946C91.4847 57.172 91.4508 57.1453 91.4204 57.1151C91.1342 56.8491 91.1118 56.3144 91.4512 56.1142C89.9305 56.7038 89.0411 58.3079 88.8167 59.8901C88.5922 61.4723 88.9037 63.0709 89.1085 64.6559C89.3133 66.2408 89.4031 67.9053 88.7662 69.3778C88.0142 71.1136 86.2859 72.3612 84.4005 72.7589C84.2322 72.7945 84.0638 72.8247 83.8927 72.8439C83.779 72.0912 83.4932 71.3733 83.0566 70.7434C83.172 71.4724 83.1037 72.2179 82.8574 72.9152C81.4396 72.896 80.0472 72.5442 78.7975 71.8896C77.0888 71.0094 75.6663 69.6657 74.502 68.1603C76.508 69.5506 79.2801 70.0716 81.4629 68.972C83.4157 67.9848 84.5688 65.9118 85.0739 63.8223C85.5789 61.73 83.4562 59.1667 83.6863 57.0306C83.9191 54.8944 86.5553 53.0814 87.9974 51.4608C88.9177 50.427 90.2756 49.662 91.6757 49.7909C92.1485 49.8349 92.6061 49.978 93.0172 50.2104C93.4283 50.4429 93.7834 50.7592 94.0582 51.1378C94.3329 51.5164 94.521 51.9485 94.6095 52.4045C94.6981 52.8606 94.685 53.33 94.5712 53.7806C94.9696 53.2295 95.9993 53.3501 96.2546 53.9781C96.3231 54.151 96.3291 54.3416 96.2715 54.5183Z" fill="#2F2E41"/>
<path d="M92.6885 64.0365C92.6885 64.0365 94.3884 57.835 101.675 56.4036C101.684 56.401 101.711 56.3903 101.747 56.3742C101.769 56.3608 101.796 56.3474 101.823 56.3341C101.741 56.2886 101.662 56.2485 101.58 56.2083L101.579 56.2081L101.578 56.2076L101.577 56.2067L101.577 56.2057C101.506 56.1414 101.435 56.0772 101.361 56.0157L101.153 56.0237C101.153 56.0237 93.8409 54.8921 92.6885 64.0365Z" fill="#FD6584"/>
<path d="M110.976 93.5897C110.911 93.4283 110.802 93.2875 110.66 93.1828C110.519 93.078 110.351 93.0133 110.174 92.9957C109.82 92.9657 109.464 93.0161 109.133 93.143C107.835 93.5656 106.67 94.3061 105.748 95.294L105.764 95.9217C105.331 96.4613 105.1 97.1294 105.109 97.815C105.118 98.5007 105.367 99.1626 105.814 99.691C106.066 99.9951 106.411 100.213 106.798 100.314C106.992 100.361 107.195 100.356 107.386 100.3C107.577 100.244 107.749 100.138 107.883 99.9941C108.271 99.5324 108.084 98.8368 107.799 98.3085C107.301 97.3893 106.572 96.6087 105.681 96.0398C107.169 96.0028 108.63 95.6478 109.962 94.9999C110.257 94.8737 110.524 94.6911 110.745 94.4627C110.855 94.3474 110.934 94.2072 110.974 94.0547C111.014 93.9023 111.015 93.7425 110.976 93.5897Z" fill="#2F2E41"/>
<path d="M137.649 130.525L134.872 130.633C134.178 131.887 133.807 133.289 133.793 134.715C135.445 132.76 138.609 133.02 140.825 131.7C141.512 131.283 142.095 130.72 142.53 130.053C142.965 129.386 143.24 128.632 143.336 127.846L144.374 126.208C143.089 125.977 141.768 126.02 140.502 126.335C139.236 126.651 138.055 127.231 137.041 128.035C136.476 128.492 135.973 129.016 135.542 129.596C136.602 129.995 137.649 130.525 137.649 130.525Z" fill="#F2F2F2"/>
<path d="M123.794 160.024L121.017 160.132C120.323 161.386 119.953 162.788 119.938 164.214C121.59 162.259 124.755 162.519 126.97 161.199C127.658 160.782 128.241 160.219 128.675 159.552C129.11 158.885 129.386 158.131 129.482 157.345L130.519 155.707C129.235 155.476 127.914 155.519 126.648 155.834C125.382 156.15 124.201 156.73 123.186 157.534C122.622 157.991 122.118 158.515 121.688 159.095C122.747 159.494 123.794 160.024 123.794 160.024Z" fill="#F2F2F2"/>
<path d="M58.3467 118.257L55.993 116.813C54.6949 117.465 53.5793 118.417 52.7432 119.587C55.2365 118.885 57.6976 120.847 60.2887 120.98C61.0972 121.015 61.9035 120.872 62.6478 120.562C63.3921 120.251 64.0554 119.781 64.5884 119.186L66.3911 118.407C65.4647 117.506 64.3496 116.813 63.1226 116.375C61.8956 115.936 60.5859 115.763 59.2838 115.867C58.5539 115.932 57.8354 116.087 57.1451 116.328C57.7892 117.241 58.3467 118.257 58.3467 118.257Z" fill="#F2F2F2"/>
<path d="M127.702 55.2683C127.647 54.9048 128.051 54.6458 128.201 54.3093C128.298 54.0089 128.298 53.6867 128.201 53.3864C128.114 52.9784 128.014 52.5456 127.712 52.2516C127.403 51.9979 127.022 51.842 126.621 51.8046C125.644 51.638 124.648 51.6208 123.666 51.7535L124.411 51.7978C123.942 51.7685 123.471 51.8219 123.022 51.9553C122.797 52.0245 122.595 52.1476 122.432 52.3133C122.269 52.4791 122.151 52.6821 122.09 52.9039C121.998 53.3531 122.312 53.8793 122.779 53.9177C122.546 53.8713 122.303 53.917 122.104 54.0448C121.905 54.1726 121.766 54.3722 121.717 54.5999C121.669 54.8276 121.714 55.065 121.844 55.2601C121.973 55.4552 122.177 55.5922 122.409 55.6412C122.302 55.9251 121.982 56.061 121.709 56.2026C121.435 56.3443 121.147 56.5871 121.193 56.8864C121.254 57.2822 121.795 57.3635 122.204 57.3461L126.658 57.1561C127.042 57.1695 127.423 57.0921 127.769 56.9306C128.099 56.7424 128.33 56.33 128.177 55.9875C128.059 55.7229 127.746 55.5537 127.702 55.2683Z" fill="#3F3D56"/>
<path d="M76.0467 94.0382C75.4346 96.6665 75.1437 99.6462 76.7763 101.998C77.4703 103.007 78.4887 103.761 79.6704 104.141C80.8666 104.488 82.1278 104.563 83.3583 104.362C86.143 103.985 88.6178 102.568 91.3564 102.017C92.565 101.774 93.8476 101.694 95.011 102.162C95.8827 102.512 96.8009 103.216 96.8051 104.22C96.8094 105.252 95.8927 105.936 94.9811 106.254C93.7647 106.677 92.5006 106.513 91.2389 106.46C89.8801 106.402 88.4945 106.522 87.3656 107.336C86.3947 108.076 85.6501 109.063 85.2128 110.188C84.6454 111.534 84.4151 112.981 84.0523 114.385C83.728 115.648 83.2693 116.873 82.6836 118.042C81.5344 120.334 79.9235 122.375 77.9474 124.043C76.9728 124.862 75.7886 125.697 74.4576 125.773C73.431 125.83 72.183 125.409 71.7873 124.393C71.6403 123.954 71.6547 123.479 71.828 123.049C72.0013 122.62 72.3227 122.263 72.7365 122.04C73.6163 121.606 74.5745 122.225 74.8586 123.075C74.9332 123.271 74.9592 123.481 74.9347 123.688C74.9101 123.896 74.8357 124.095 74.7175 124.269C74.4507 124.658 75.0933 125.021 75.3583 124.635C75.9736 123.738 75.652 122.533 74.8985 121.814C74.5309 121.448 74.0395 121.225 73.516 121.187C72.9925 121.149 72.4727 121.298 72.0536 121.607C71.6182 121.931 71.289 122.372 71.1065 122.877C70.924 123.381 70.896 123.926 71.0261 124.446C71.3426 125.562 72.4649 126.272 73.5857 126.448C74.9697 126.665 76.3016 126.134 77.4188 125.366C78.5397 124.575 79.5589 123.655 80.4542 122.625C82.2745 120.579 83.6429 118.188 84.4736 115.601C85.2906 113.043 85.35 109.663 87.7775 107.935C89.0266 107.046 90.5571 107.145 92.0216 107.226C93.3144 107.298 94.5756 107.285 95.7616 106.713C96.7409 106.241 97.5311 105.369 97.5474 104.258C97.5639 103.137 96.7494 102.235 95.7897 101.725C93.2543 100.375 90.2096 101.463 87.7189 102.365C85.2141 103.272 82.3542 104.336 79.6923 103.382C78.4637 102.915 77.4745 101.991 76.9417 100.813C76.2971 99.4772 76.2054 97.9613 76.3543 96.5114C76.4421 95.7438 76.5784 94.9822 76.7624 94.2311C76.8683 93.7765 76.1529 93.5825 76.0467 94.0382Z" fill="#3F3D56"/>
<path d="M88.3391 108.664C88.1112 108.384 87.9489 108.058 87.8638 107.709C87.7786 107.361 87.7727 106.998 87.8464 106.648C87.92 106.297 88.0715 105.966 88.2901 105.679C88.5088 105.391 88.7892 105.154 89.1118 104.984L85.3391 94.0681L88.4197 82.5002L93.3872 84.6951L90.3218 93.4204L92.6152 106.121C92.8716 106.669 92.9132 107.291 92.7322 107.867C92.5511 108.444 92.16 108.935 91.633 109.249C91.1059 109.562 90.4794 109.676 89.8724 109.568C89.2653 109.46 88.7197 109.139 88.3391 108.664Z" fill="#FFB6B6"/>
<path d="M92.8863 72.9691C92.8863 72.9691 91.7196 72.3568 90.9082 74.9818C90.2586 77.0833 85.8378 88.4934 85.7581 91.5404C85.3301 91.6272 84.9438 91.8506 84.6601 92.1756C84.3763 92.5006 84.2113 92.9085 84.1909 93.3353L90.6116 94.2037C91.7383 93.283 91.1736 92.4995 90.7409 92.1267L92.9277 88.5065L97.4985 78.733L93.7377 73.397L92.8863 72.9691Z" fill="#E6E6E6"/>
<path d="M80.5963 86.6652C79.8623 89.0602 78.7558 91.3306 77.3157 93.3968C76.9594 93.9046 76.585 94.3995 76.1925 94.8814C75.8874 94.3395 75.5178 93.8347 75.0915 93.3775C73.5947 91.7695 71.5883 90.7177 69.6412 89.6635C67.6942 88.6092 65.7174 87.4776 64.3418 85.7681C63.7246 84.9986 63.2826 84.1091 63.0455 83.1591C62.7337 81.8704 62.8525 80.526 63.6219 79.45C64.7402 77.8856 66.9693 77.3343 68.8644 77.7864C70.762 78.2386 72.3503 79.5274 73.5824 81.0072C73.1791 79.1889 75.141 77.4334 77.0386 77.593C78.9362 77.755 80.4577 79.375 80.9624 81.1692C81.4696 82.9609 81.1405 84.8807 80.5963 86.6652Z" fill="#F5683A"/>
<path d="M117.278 20.1413C116.272 20.3018 115.311 20.6602 114.451 21.1949C113.592 21.7296 112.852 22.4293 112.278 23.2517C111.696 24.1008 111.308 25.0626 111.141 26.0716C110.974 27.0805 111.032 28.1129 111.31 29.0981C111.622 30.2405 112.216 31.2908 113.04 32.1573C113.366 32.4998 113.89 31.986 113.565 31.6444C112.916 30.9491 112.426 30.1273 112.127 29.2332C111.827 28.3391 111.725 27.3931 111.828 26.4576C111.938 25.5586 112.242 24.6928 112.721 23.9178C113.2 23.1427 113.843 22.4762 114.605 21.9625C115.46 21.3769 116.443 20.9929 117.475 20.8408C117.946 20.7715 117.746 20.0724 117.278 20.1413Z" fill="#3F3D56"/>
<g opacity="0.2">
<path d="M142.737 31.584C142.398 31.984 142.027 32.356 141.626 32.6963C135.399 37.9723 130.339 43.7561 126.586 49.8856L125.233 52.0956L125.141 52.2479C124.822 52.0133 124.544 51.73 124.317 51.4089C123.451 50.1782 123.446 48.5606 123.659 47.0808C124.303 42.6438 126.612 38.5995 130.139 35.7351C133.665 32.8706 138.156 31.391 142.737 31.584Z" fill="black"/>
</g>
<g opacity="0.2">
<path d="M77.3158 93.3968C76.9595 93.9046 76.5851 94.3995 76.1926 94.8815C75.8874 94.3395 75.5179 93.8347 75.0916 93.3775C73.5948 91.7696 71.5884 90.7177 69.6413 89.6635C67.6942 88.6093 65.7175 87.4777 64.3419 85.7682C63.7247 84.9986 63.2827 84.1091 63.0455 83.1592C67.4226 83.7522 71.4445 85.8375 74.4014 89.0469C75.5852 90.3499 76.5671 91.8154 77.3158 93.3968Z" fill="black"/>
</g>
<path d="M124.755 52.1947C125.302 52.1947 125.745 51.7617 125.745 51.2275C125.745 50.6933 125.302 50.2603 124.755 50.2603C124.209 50.2603 123.766 50.6933 123.766 51.2275C123.766 51.7617 124.209 52.1947 124.755 52.1947Z" fill="#3F3D56"/>
</g>
<defs>
<clipPath id="clip0_604_1531">
<rect width="157.762" height="157.762" fill="white" transform="translate(16.9897 16.9897)"/>
</clipPath>
</defs>
</svg>
