<svg width="191" height="191" viewBox="0 0 191 191" fill="none" xmlns="http://www.w3.org/2000/svg">
<path d="M92.686 144.61L86.4491 139.332C87.1624 135.101 88.8977 131.107 91.5045 127.699C91.7141 135.324 99.5302 140.431 102.22 147.569C103.042 149.802 103.351 152.191 103.123 154.56C102.896 156.928 102.139 159.215 100.908 161.251L100.281 167.012C96.8747 165.237 93.8939 162.745 91.5438 159.707C89.1936 156.669 87.53 153.158 86.6675 149.415C86.2044 147.31 86.0083 145.156 86.0835 143.002C89.2769 143.974 92.686 144.61 92.686 144.61Z" fill="#F2F2F2"/>
<path d="M173.676 154.537L178.032 147.624C182.321 147.74 186.518 148.9 190.257 151.006C182.735 152.278 178.77 160.731 172.077 164.391C169.981 165.516 167.658 166.156 165.281 166.262C162.905 166.368 160.534 165.937 158.346 165.003L152.554 165.186C153.836 161.565 155.888 158.265 158.568 155.514C161.248 152.763 164.492 150.625 168.078 149.248C170.097 148.496 172.203 148.001 174.346 147.775C173.83 151.072 173.676 154.537 173.676 154.537Z" fill="#F2F2F2"/>
<path d="M35.814 132.002L11.6646 130.585L14.9749 107.177L36.2555 130.112L35.814 132.002Z" fill="#F2F2F2"/>
<path d="M32.7401 155.884L8.14917 154.228L11.428 132.95L32.851 154.232L32.7401 155.884Z" fill="#F2F2F2"/>
<path d="M170.114 57.1372V35.5146C170.114 33.8711 169.79 32.2438 169.161 30.7255C168.533 29.2071 167.611 27.8275 166.449 26.6654C165.287 25.5033 163.907 24.5815 162.389 23.9526C160.87 23.3237 159.243 23 157.599 23H111.789C110.146 23 108.518 23.3237 107 23.9526C105.482 24.5815 104.102 25.5033 102.94 26.6654C101.778 27.8275 100.856 29.2071 100.227 30.7255C99.5981 32.2438 99.2744 33.8711 99.2744 35.5146V154.138C99.2744 157.457 100.593 160.64 102.94 162.987C105.287 165.334 108.47 166.653 111.789 166.653H157.6C160.919 166.653 164.102 165.334 166.449 162.987C168.796 160.64 170.114 157.457 170.114 154.138V72.5286C170.323 72.5286 170.524 72.4454 170.672 72.2974C170.82 72.1494 170.903 71.9486 170.903 71.7393V57.9265C170.903 57.7172 170.82 57.5164 170.672 57.3684C170.524 57.2204 170.323 57.1372 170.114 57.1372Z" fill="#3F3D56"/>
<path d="M167.451 35.6004V154.052C167.451 156.513 166.48 158.874 164.75 160.623C163.019 162.372 160.668 163.367 158.208 163.393C158.174 163.396 158.14 163.398 158.106 163.397H112.072C109.594 163.397 107.217 162.412 105.465 160.66C103.712 158.908 102.728 156.531 102.728 154.052V35.6004C102.728 33.1221 103.712 30.7453 105.465 28.9929C107.217 27.2405 109.594 26.2558 112.072 26.2556H117.659C117.384 26.93 117.279 27.6616 117.354 28.386C117.428 29.1103 117.68 29.8053 118.086 30.4097C118.492 31.0141 119.041 31.5094 119.683 31.852C120.326 32.1947 121.043 32.3741 121.771 32.3747H148.015C148.743 32.3726 149.459 32.1922 150.1 31.849C150.742 31.5059 151.289 31.0105 151.695 30.4065C152.1 29.8024 152.351 29.1081 152.426 28.3844C152.501 27.6607 152.397 26.9297 152.123 26.2556H158.106C160.584 26.2558 162.961 27.2404 164.713 28.9929C166.466 30.7453 167.45 33.1221 167.451 35.6004Z" fill="white"/>
<path d="M157.315 160.506C157.315 161.733 157.277 162.95 157.199 164.157C157.166 164.161 157.132 164.162 157.098 164.161H111.066C108.983 164.161 106.96 163.466 105.317 162.185C103.675 160.904 102.507 159.111 102 157.091C101.911 156.739 101.844 156.381 101.799 156.02C101.747 155.621 101.721 155.219 101.721 154.817V102.029C105.263 102.204 108.782 102.701 112.234 103.514C112.572 103.592 112.907 103.675 113.241 103.76C113.262 103.765 113.283 103.772 113.305 103.776C113.643 103.862 113.979 103.951 114.312 104.044C121.428 105.998 128.108 109.287 133.997 113.736C134.335 113.989 134.67 114.249 135.004 114.511L135.068 114.561C135.626 115.001 136.175 115.452 136.716 115.913C136.836 116.015 136.957 116.119 137.075 116.226C137.366 116.476 137.657 116.732 137.941 116.989C144.22 122.641 149.204 129.582 152.553 137.338C152.664 137.591 152.771 137.847 152.877 138.102C152.92 138.206 152.962 138.31 153.005 138.414C153.045 138.509 153.083 138.603 153.121 138.698C155.901 145.632 157.324 153.035 157.315 160.506Z" fill="#3F3D56"/>
<path d="M99.5274 69.2338C99.245 69.2335 98.9742 69.1211 98.7745 68.9214C98.5748 68.7217 98.4625 68.4509 98.4622 68.1685V60.9245C98.4622 60.642 98.5744 60.371 98.7742 60.1712C98.974 59.9714 99.2449 59.8592 99.5274 59.8592C99.81 59.8592 100.081 59.9714 100.281 60.1712C100.481 60.371 100.593 60.642 100.593 60.9245V68.1685C100.592 68.4509 100.48 68.7217 100.28 68.9214C100.081 69.1211 99.8099 69.2335 99.5274 69.2338Z" fill="#3F3D56"/>
<path d="M99.3141 55.1717C99.0316 55.1714 98.7609 55.059 98.5612 54.8593C98.3615 54.6596 98.2491 54.3888 98.2488 54.1064V46.8624C98.2488 46.5799 98.361 46.3089 98.5608 46.1091C98.7606 45.9094 99.0315 45.7971 99.3141 45.7971C99.5966 45.7971 99.8676 45.9094 100.067 46.1091C100.267 46.3089 100.379 46.5799 100.379 46.8624V54.1064C100.379 54.3888 100.267 54.6596 100.067 54.8593C99.8673 55.059 99.5965 55.1714 99.3141 55.1717Z" fill="#3F3D56"/>
<path d="M127.651 27.4743C127.651 27.1919 127.764 26.9211 127.963 26.7214C128.163 26.5217 128.434 26.4093 128.716 26.409H135.96C136.1 26.4088 136.239 26.4362 136.369 26.4896C136.498 26.5431 136.616 26.6215 136.715 26.7205C136.814 26.8194 136.892 26.9369 136.946 27.0663C137 27.1956 137.027 27.3343 137.027 27.4743C137.027 27.6143 137 27.753 136.946 27.8823C136.892 28.0117 136.814 28.1292 136.715 28.2281C136.616 28.3271 136.498 28.4055 136.369 28.459C136.239 28.5124 136.1 28.5398 135.96 28.5396H128.716C128.434 28.5393 128.163 28.4269 127.963 28.2272C127.764 28.0275 127.651 27.7567 127.651 27.4743Z" fill="white"/>
<path d="M99.5274 81.5911C99.245 81.5908 98.9742 81.4785 98.7745 81.2787C98.5748 81.079 98.4625 80.8083 98.4622 80.5258V73.2818C98.4622 72.9993 98.5744 72.7284 98.7742 72.5286C98.974 72.3288 99.2449 72.2166 99.5274 72.2166C99.81 72.2166 100.081 72.3288 100.281 72.5286C100.481 72.7284 100.593 72.9993 100.593 73.2818V80.5258C100.592 80.8083 100.48 81.079 100.28 81.2787C100.081 81.4785 99.8099 81.5908 99.5274 81.5911Z" fill="#3F3D56"/>
<path d="M140.009 28.5396C140.597 28.5396 141.074 28.0626 141.074 27.4743C141.074 26.8859 140.597 26.409 140.009 26.409C139.42 26.409 138.943 26.8859 138.943 27.4743C138.943 28.0626 139.42 28.5396 140.009 28.5396Z" fill="white"/>
<path opacity="0.2" d="M136.075 155.257C136.075 153.045 136.511 150.855 137.357 148.811C138.203 146.767 139.444 144.911 141.008 143.347C142.572 141.783 144.429 140.542 146.472 139.696C148.516 138.849 150.706 138.414 152.918 138.414H153.005C152.963 138.31 152.92 138.206 152.878 138.102C152.771 137.847 152.665 137.591 152.554 137.338H136.075V116.226H137.076C136.957 116.119 136.837 116.015 136.716 115.914C136.175 115.452 135.625 115.002 135.068 114.561L135.004 114.511V115.15H114.312V104.044C113.979 103.951 113.643 103.862 113.305 103.777C113.284 103.772 113.263 103.765 113.241 103.76V115.15H102.729V116.226H113.241V137.338H102.729V138.414H113.241V155.257H102.807C102.852 155.617 102.919 155.975 103.008 156.328H113.241V163.398H114.313V156.328H135.004V163.398H136.075V156.328H154.129V155.257H136.075ZM135.004 155.257H114.312V138.414H135.004V155.257ZM135.004 137.338H114.312V136.917C114.313 131.43 116.493 126.167 120.373 122.286C124.254 118.406 129.517 116.226 135.004 116.226V137.338Z" fill="black"/>
<path d="M43.2519 78.0434L31.7675 166.386L31.6942 166.949H31.2166L31.2899 166.386L42.7837 77.9819L43.2519 78.0434Z" fill="#E5E5E5"/>
<path d="M19.3415 78.1546L6.67717 166.396L6.59677 166.959H6.11914L6.19953 166.396L18.8733 78.0884L19.3415 78.1546Z" fill="#E5E5E5"/>
<path d="M61.1084 166.937L60.6166 166.94L60.4652 166.377L35.9666 75.3786L36.4229 75.2557L60.9547 166.377L61.1084 166.937Z" fill="#3F3D56"/>
<path d="M60.0709 75.2521L59.616 75.381L85.433 166.45L85.8879 166.322L60.0709 75.2521Z" fill="#3F3D56"/>
<path d="M80.9601 149.742L57.5498 154.585L57.6456 155.049L81.0559 150.205L80.9601 149.742Z" fill="#3F3D56"/>
<path d="M76.9012 135.536L53.491 140.379L53.5868 140.843L76.997 136L76.9012 135.536Z" fill="#3F3D56"/>
<path d="M72.8451 121.33L49.5981 125.829L49.688 126.293L72.935 121.794L72.8451 121.33Z" fill="#3F3D56"/>
<path d="M68.786 107.127L46.0454 111.621L46.1371 112.084L68.8777 107.591L68.786 107.127Z" fill="#3F3D56"/>
<path d="M18.9419 78.1382C18.5863 75.8151 19.1681 73.4458 20.5593 71.5517C21.9506 69.6576 24.0373 68.3937 26.3604 68.038C28.6835 67.6824 31.0527 68.2642 32.9469 69.6555C34.841 71.0467 36.1049 73.1334 36.4605 75.4565L35.9932 75.5281C35.827 74.4388 35.4478 73.3928 34.8773 72.4501C34.3067 71.5073 33.556 70.6862 32.6681 70.0336C31.7801 69.3811 30.7723 68.9099 29.7022 68.6469C28.632 68.384 27.5206 68.3345 26.4313 68.5012C25.3421 68.668 24.2963 69.0477 23.3539 69.6187C22.4114 70.1897 21.5906 70.9408 20.9385 71.8291C20.2864 72.7174 19.8157 73.7254 19.5533 74.7957C19.2909 75.866 19.242 76.9774 19.4093 78.0666L18.9419 78.1382Z" fill="#3F3D56"/>
<path d="M42.6252 78.244C42.4337 77.0959 42.4702 75.9213 42.7326 74.7874C42.9951 73.6534 43.4784 72.5823 44.1549 71.6352C44.8314 70.688 45.6879 69.8834 46.6754 69.2674C47.6629 68.6513 48.7621 68.2358 49.9102 68.0446C51.0583 67.8534 52.2329 67.8903 53.3668 68.1531C54.5006 68.416 55.5716 68.8996 56.5185 69.5764C57.4655 70.2532 58.2698 71.1099 58.8855 72.0976C59.5013 73.0854 59.9164 74.1847 60.1072 75.3329L59.6408 75.4105C59.2744 73.2168 58.0518 71.2585 56.2419 69.966C54.4319 68.6735 52.1828 68.1526 49.989 68.518C47.7951 68.8833 45.8362 70.1049 44.5428 71.9142C43.2494 73.7235 42.7274 75.9724 43.0917 78.1664L42.6252 78.244Z" fill="#3F3D56"/>
<path d="M67.0588 97.5413L62.5144 108.597L77.3207 108.489L75.815 97.5167L67.0588 97.5413Z" fill="#FFB6B6"/>
<path d="M70.6746 148.292L72.8707 148.612L75.1511 140.294L71.9098 139.821L70.6746 148.292Z" fill="#FFB6B6"/>
<path d="M70.2878 147.129L73.7897 147.428L73.5727 148.915L76.5408 151.676C76.6874 151.813 76.7866 151.992 76.8238 152.189C76.8611 152.386 76.8345 152.589 76.748 152.77C76.6614 152.95 76.5195 153.098 76.3427 153.193C76.166 153.287 75.9639 153.322 75.7658 153.293L71.6326 152.69L71.1349 151.115L70.6421 152.546L69.0837 152.318L70.2878 147.129Z" fill="#2F2E41"/>
<path d="M45.2944 142.148L47.0465 143.51L53.1351 137.401L50.5493 135.39L45.2944 142.148Z" fill="#FFB6B6"/>
<path d="M45.5321 140.946L48.4301 142.934L47.5074 144.121L48.7263 147.987C48.7866 148.178 48.7842 148.383 48.7195 148.572C48.6549 148.762 48.5313 148.926 48.367 149.04C48.2026 149.154 48.006 149.213 47.8059 149.208C47.6057 149.203 47.4125 149.133 47.2545 149.01L43.9573 146.446L44.3017 144.831L43.167 145.832L41.9238 144.865L45.5321 140.946Z" fill="#2F2E41"/>
<path d="M63.3508 105.973L61.8926 107.905L58.0112 124.792L49.189 136.707L52.1546 139.555L63.4072 128.638L68.9295 116.974L71.7234 127.748L71.014 142.171L75.743 141.935C77.0247 125.196 79.0296 107.974 76.6681 103.137C75.1115 104.495 73.2943 105.521 71.3276 106.152C69.3609 106.784 67.2861 107.007 65.23 106.809L63.3508 105.973Z" fill="#2F2E41"/>
<path d="M71.1562 79.6631L74.887 83.7427C75.7058 84.638 76.2248 85.7665 76.3717 86.9709C76.4384 87.5178 76.4273 88.0713 76.3386 88.6151L75.5344 94.5074L76.9531 103.493C76.9531 103.493 74.9311 104.726 71.0418 107.276C69.4544 108.316 62.0476 108.3 62.0566 107.985C62.0986 106.528 63.4019 102.601 63.7118 97.8177C64.0943 91.9132 63.5927 84.8662 64.8941 81.5026C66.4827 77.3964 71.1562 79.6631 71.1562 79.6631Z" fill="#1269B7"/>
<path d="M58.3536 105.806C58.5164 105.569 58.6253 105.299 58.6726 105.016C58.7199 104.732 58.7045 104.442 58.6275 104.165C58.5505 103.888 58.4137 103.632 58.2267 103.413C58.0398 103.195 57.8073 103.021 57.5456 102.902L57.6915 98.4127L54.985 97.6586L54.8681 104.001C54.6978 104.454 54.6997 104.954 54.8731 105.405C55.0466 105.857 55.3798 106.229 55.8094 106.452C56.2391 106.674 56.7354 106.731 57.2043 106.612C57.6732 106.493 58.0821 106.206 58.3536 105.806Z" fill="#FFB6B6"/>
<path d="M54.7436 87.6832C54.8234 87.474 54.9458 87.2837 55.1031 87.1243C55.2603 86.9649 55.449 86.8399 55.657 86.7572C57.0974 86.152 63.3252 81.063 63.5547 81.1585L65.5318 80.1827C65.6048 80.1835 67.5523 80.2296 68.5078 81.313C68.7064 81.5417 68.8532 81.8107 68.938 82.1015C69.0228 82.3923 69.0437 82.6981 68.9991 82.9977C68.7194 85.5779 59.8907 91.3733 58.9551 91.3343L57.9639 98.66L58.3496 101.459L54.7391 101.561L53.6265 97.4405C53.4668 97.14 53.2652 91.4478 54.7436 87.6832Z" fill="#1269B7"/>
<path d="M69.2183 83.7702C69.5105 81.7672 68.3856 79.9449 66.7057 79.6998C65.0258 79.4548 63.4272 80.8798 63.135 82.8827C62.8428 84.8857 63.9678 86.708 65.6476 86.9531C67.3275 87.1981 68.9262 85.7731 69.2183 83.7702Z" fill="#1269B7"/>
<path d="M42.0788 96.8655L41.9873 96.4015L63.9484 91.4335V91.9064L42.0788 96.8655Z" fill="#3F3D56"/>
<path d="M139.3 63.4498H130.878C129.061 63.4498 127.588 64.9226 127.588 66.7395V66.7395C127.588 68.5564 129.061 70.0293 130.878 70.0293H139.3C141.117 70.0293 142.59 68.5564 142.59 66.7395C142.59 64.9226 141.117 63.4498 139.3 63.4498Z" fill="#E6E6E6"/>
<path d="M154.927 76.6086H115.251C113.435 76.6086 111.962 78.0815 111.962 79.8983V79.8983C111.962 81.7152 113.435 83.1881 115.251 83.1881H154.927C156.744 83.1881 158.217 81.7152 158.217 79.8983C158.217 78.0815 156.744 76.6086 154.927 76.6086Z" fill="#E6E6E6"/>
<path d="M137.902 86.4574H98.227C96.4101 86.4574 94.9373 87.9303 94.9373 89.7471V89.7471C94.9373 91.564 96.4101 93.0369 98.227 93.0369H137.902C139.719 93.0369 141.192 91.564 141.192 89.7471C141.192 87.9303 139.719 86.4574 137.902 86.4574Z" fill="#1269B7"/>
<path d="M189.676 166.353C189.676 166.416 189.669 166.479 189.656 166.537C189.643 166.596 189.624 166.649 189.6 166.694C189.575 166.739 189.547 166.775 189.515 166.799C189.483 166.823 189.449 166.835 189.415 166.835L59.4039 166.92L58.9477 166.924L32.1159 166.94H31.6728L8.83326 166.957H8.39016L1.26104 166.961C1.19181 166.961 1.12541 166.91 1.07646 166.819C1.0275 166.729 1 166.606 1 166.478C1 166.35 1.0275 166.228 1.07646 166.137C1.12541 166.047 1.19181 165.996 1.26104 165.996L8.46474 165.992H8.90784L31.7408 165.976H32.1839L58.8073 165.959H59.2614L81.9473 165.943H82.2456L189.415 165.87C189.449 165.87 189.483 165.882 189.515 165.906C189.547 165.931 189.575 165.966 189.6 166.011C189.624 166.056 189.643 166.109 189.656 166.168C189.669 166.226 189.676 166.289 189.676 166.353Z" fill="#CACACA"/>
<path d="M75.104 75.5893C74.3981 76.527 73.394 77.1963 72.2569 77.487C71.1199 77.7777 69.9177 77.6725 68.8484 77.1888C67.7791 76.705 66.9064 75.8715 66.3741 74.8255C65.8418 73.7795 65.6816 72.5834 65.9198 71.4342C66.1581 70.285 66.7806 69.2512 67.6849 68.5031C68.5892 67.7549 69.7213 67.3371 70.8948 67.3183C72.0683 67.2995 73.2132 67.6809 74.1409 68.3998C75.0687 69.1186 75.724 70.1319 75.9989 71.2729C76.0138 71.3348 76.0263 71.3964 76.0385 71.4603C76.1837 72.1755 76.1754 72.9133 76.0144 73.6251C75.8533 74.3369 75.543 75.0063 75.104 75.5893Z" fill="#FFB6B6"/>
<path d="M76.448 71.5201C76.3178 70.8727 76.367 71.2072 76.2342 70.5618C76.2616 70.8742 76.1934 71.1876 76.0386 71.4604L69.9529 70.5726L70.4689 67.0349C72.3549 66.5884 74.1857 66.2414 75.0478 67.7029C75.9861 67.8398 76.8315 68.3438 77.3981 69.104C77.9648 69.8642 78.2063 70.8184 78.0695 71.7567L76.448 71.5201Z" fill="#2F2E41"/>
<path d="M72.8561 81.0393C72.861 80.9731 72.8639 80.9042 72.8641 80.8373C72.8524 80.3448 72.7885 79.8549 72.6734 79.3758C72.57 78.8565 72.4645 78.3346 72.3587 77.8149C72.457 78.7445 72.2491 79.6807 71.7666 80.4813C70.8562 79.5313 71.4581 78.1561 70.1151 77.9602C66.8863 77.4892 64.2589 74.0264 64.7302 70.7952C65.2012 67.5663 66.9386 65.3538 70.1675 65.8248C73.3987 66.2961 75.8035 68.1571 75.3956 71.3952C71.2815 71.7509 73.6549 80.8213 72.8561 81.0393Z" fill="#2F2E41"/>
<path d="M65.7521 68.7722C66.9432 68.7722 67.9087 67.8067 67.9087 66.6156C67.9087 65.4245 66.9432 64.459 65.7521 64.459C64.561 64.459 63.5955 65.4245 63.5955 66.6156C63.5955 67.8067 64.561 68.7722 65.7521 68.7722Z" fill="#2F2E41"/>
<path d="M68.3103 64.8349C68.1091 64.3997 67.8038 64.0208 67.4212 63.7318C67.0387 63.4428 66.5908 63.2525 66.1172 63.178C66.4508 63.3288 66.7422 63.5594 66.9657 63.8495C67.1892 64.1395 67.338 64.48 67.3988 64.8411C67.4597 65.2021 67.4309 65.5726 67.3148 65.9199C67.1988 66.2672 66.9991 66.5806 66.7334 66.8325L67.1694 66.4577C67.2883 66.559 67.4364 66.6196 67.5922 66.6307C67.7479 66.6418 67.9031 66.6029 68.0352 66.5195C68.1646 66.4323 68.2726 66.317 68.3511 66.182C68.4296 66.0471 68.4765 65.8962 68.4882 65.7405C68.5089 65.4283 68.4476 65.1161 68.3103 64.8349Z" fill="#2F2E41"/>
<path d="M95.763 87.6451C95.5067 87.5152 95.225 87.4432 94.9378 87.434C94.6506 87.4248 94.3648 87.4787 94.1007 87.5919C93.8366 87.705 93.6005 87.8748 93.4091 88.0891C93.2176 88.3033 93.0755 88.557 92.9927 88.8322L88.524 89.2849L88.1367 92.0676L94.4385 91.3397C94.91 91.4481 95.4048 91.3799 95.8293 91.1478C96.2539 90.9158 96.5785 90.5361 96.7418 90.0807C96.905 89.6253 96.8956 89.1258 96.7152 88.6769C96.5348 88.228 96.196 87.8609 95.763 87.6451Z" fill="#FFB6B6"/>
<path d="M78.2823 93.6342C78.0644 93.5829 77.8594 93.4869 77.6805 93.3523C77.5016 93.2176 77.3526 93.0473 77.243 92.8521C76.4515 91.505 70.5792 86.0096 70.6433 85.7695L69.4131 83.9398C69.4042 83.8674 69.1908 81.931 70.1374 80.8399C70.3377 80.6126 70.5848 80.4314 70.8617 80.3086C71.1387 80.1858 71.4389 80.1245 71.7418 80.1288C74.3363 80.0628 80.8589 88.2738 80.9447 89.2064L88.7331 88.9821L91.4555 88.2275L92.0375 91.7923L88.1014 93.4432C87.8248 93.6415 82.2101 94.5986 78.2823 93.6342Z" fill="#1269B7"/>
</svg>
