<svg width="191" height="191" viewBox="0 0 191 191" fill="none" xmlns="http://www.w3.org/2000/svg">
<g clip-path="url(#clip0_604_1532)">
<path d="M124.314 119.835C131.818 191.641 160.619 181.98 182.079 80.483C187.725 53.7775 169.545 27.8027 142.727 22.718C115.909 17.6333 90.0467 35.2517 84.962 62.0698C79.8774 88.8878 121.477 92.6868 124.314 119.835Z" fill="#F2F2F2"/>
<path d="M31.4089 142.373C31.4089 151.459 26.0077 154.631 19.3451 154.631C12.6824 154.631 7.28125 151.459 7.28125 142.373C7.28125 133.288 19.3451 121.73 19.3451 121.73C19.3451 121.73 31.4089 133.288 31.4089 142.373Z" fill="#F2F2F2"/>
<path d="M18.9055 153.241L19.0292 145.638L24.171 136.231L19.0484 144.445L19.1041 141.026L22.6479 134.22L19.1188 140.121L19.2185 133.972L23.0134 128.554L19.2343 133.005L19.2968 121.73L18.9044 136.656L18.9368 136.041L15.0785 130.135L18.8748 137.223L18.5154 144.09L18.5046 143.908L14.0569 137.693L18.4911 144.552L18.4463 145.411L18.4382 145.423L18.4418 145.494L17.5297 162.917H18.7484L18.8946 153.918L23.3181 147.076L18.9055 153.241Z" fill="#F2F2F2"/>
<path d="M31.4089 142.373C31.4089 151.459 26.0077 154.631 19.3451 154.631C12.6824 154.631 7.28125 151.459 7.28125 142.373C7.28125 133.288 19.3451 121.73 19.3451 121.73C19.3451 121.73 31.4089 133.288 31.4089 142.373Z" fill="#F2F2F2"/>
<path d="M18.9055 153.241L19.0292 145.638L24.171 136.231L19.0484 144.445L19.1041 141.026L22.6479 134.22L19.1188 140.121L19.2185 133.972L23.0134 128.554L19.2343 133.005L19.2968 121.73L18.9044 136.656L18.9368 136.041L15.0785 130.135L18.8748 137.223L18.5154 144.09L18.5046 143.908L14.0569 137.693L18.4911 144.552L18.4463 145.411L18.4382 145.423L18.4418 145.494L17.5297 162.917H18.7484L18.8946 153.918L23.3181 147.076L18.9055 153.241Z" fill="#3F3D56"/>
<path d="M95.2116 169.088C143.442 169.088 182.54 166.518 182.54 163.348C182.54 160.178 143.442 157.608 95.2116 157.608C46.9812 157.608 7.88281 160.178 7.88281 163.348C7.88281 166.518 46.9812 169.088 95.2116 169.088Z" fill="#3F3D56"/>
<path opacity="0.1" d="M47.9714 166.453C60.0289 166.453 69.8035 164.742 69.8035 162.631C69.8035 160.519 60.0289 158.808 47.9714 158.808C35.9138 158.808 26.1392 160.519 26.1392 162.631C26.1392 164.742 35.9138 166.453 47.9714 166.453Z" fill="black"/>
<path opacity="0.1" d="M139.441 166.83C151.498 166.83 161.273 165.355 161.273 163.536C161.273 161.717 151.498 160.242 139.441 160.242C127.383 160.242 117.608 161.717 117.608 163.536C117.608 165.355 127.383 166.83 139.441 166.83Z" fill="black"/>
<path d="M51.7058 94.8494L58.168 95.0979C58.168 95.0979 63.8846 97.8319 63.8846 100.069C63.8846 102.306 57.1738 97.5834 57.1738 97.5834L51.7058 97.3348L51.7058 94.8494Z" fill="#FFB9B9"/>
<path opacity="0.1" d="M51.7058 94.8494L58.168 95.0979C58.168 95.0979 63.8846 97.8319 63.8846 100.069C63.8846 102.306 57.1738 97.5834 57.1738 97.5834L51.7058 97.3348L51.7058 94.8494Z" fill="black"/>
<path d="M51.9543 92.8611C51.9543 92.8611 53.197 95.8436 52.9485 97.3349C52.6999 98.8262 43.2551 98.3291 43.2551 98.3291L44.7464 93.8553L51.9543 92.8611Z" fill="#FFB9B9"/>
<path d="M43.0066 146.796L42.5095 153.507L46.7348 153.755L47.4803 147.293L43.0066 146.796Z" fill="#FFB9B9"/>
<path d="M43.0065 96.8378L42.0123 99.3232C42.0123 99.3232 39.7754 101.56 40.2725 107.028C40.7696 112.496 41.0181 112.745 41.0181 112.745C41.0181 112.745 39.0298 147.293 40.7696 147.541C42.5094 147.79 52.2028 152.512 53.1969 147.044C54.1911 141.576 54.6882 119.456 54.6882 119.456L43.2551 98.8261L43.0065 96.8378Z" fill="#2F2E41"/>
<path opacity="0.1" d="M43.0065 96.8378L42.0123 99.3232C42.0123 99.3232 39.7754 101.56 40.2725 107.028C40.7696 112.496 41.0181 112.745 41.0181 112.745C41.0181 112.745 39.0298 147.293 40.7696 147.541C42.5094 147.79 52.2028 152.512 53.1969 147.044C54.1911 141.576 54.6882 119.456 54.6882 119.456L43.2551 98.8261L43.0065 96.8378Z" fill="black"/>
<path d="M54.1912 142.819L51.9543 146.05L55.6826 147.541L58.9137 142.322L54.1912 142.819Z" fill="#FFB9B9"/>
<path d="M51.9541 73.723C55.1113 73.723 57.6707 71.1636 57.6707 68.0064C57.6707 64.8493 55.1113 62.2899 51.9541 62.2899C48.7969 62.2899 46.2375 64.8493 46.2375 68.0064C46.2375 71.1636 48.7969 73.723 51.9541 73.723Z" fill="#FFB9B9"/>
<path d="M47.4805 66.018C47.4805 66.018 42.5095 71.2375 41.0182 71.486C39.527 71.7346 46.2377 75.9599 46.2377 75.9599V74.4686C46.2377 74.4686 48.4746 72.2317 49.7174 71.9831C50.9601 71.7346 47.4805 66.018 47.4805 66.018Z" fill="#FFB9B9"/>
<path d="M43.5037 95.5952L42.0125 99.3234C42.0125 99.3234 39.0299 106.78 43.2552 110.757C47.4805 114.733 59.6593 127.161 59.1622 129.895C58.6651 132.629 51.2978 142.293 53.6145 143.55C55.9311 144.807 81.2829 140.334 81.5314 137.351C81.6246 136.233 80.7042 134.066 79.5173 131.794C77.2766 127.535 74.519 123.57 71.307 119.987L54.4398 101.063C54.4398 101.063 52.7 97.335 53.1971 96.5894C53.1971 96.5894 51.2087 94.601 45.2436 96.0923L43.5037 95.5952Z" fill="#2F2E41"/>
<path d="M42.2609 152.761C42.2609 152.761 41.0182 156.737 40.5211 156.986C40.024 157.235 39.5269 159.969 40.024 160.466C40.5211 160.963 40.7697 163.2 40.7697 163.2H41.2667L41.5153 160.714C41.5153 160.714 46.6646 163.823 47.4804 164.194C48.8474 164.815 54.9368 164.691 54.6883 163.448C54.4397 162.206 47.2319 158.229 47.4804 157.235C47.729 156.24 46.9833 153.258 46.9833 153.258L42.2609 152.761Z" fill="#2F2E41"/>
<path d="M56.4281 147.293L51.4571 145.304C51.4571 145.304 50.2144 147.293 48.7231 147.293C47.2318 147.293 46.0726 149.1 46.1551 149.191C46.2377 149.281 44.0007 152.264 44.0007 152.264L44.4024 152.986L47.2318 151.27L48.0248 154.6C48.4612 156.481 49.3205 158.237 50.5373 159.737C51.5124 160.923 52.7275 161.929 53.9426 161.709C53.9426 161.709 54.4397 161.709 53.9426 158.229C53.4455 154.749 54.4397 151.021 54.4397 151.021L56.4281 147.293Z" fill="#2F2E41"/>
<path d="M43.5035 71.2375C43.5035 71.2375 44.0006 72.4802 44.4977 72.7288C44.9948 72.9773 46.4861 73.9715 46.7347 74.9657C46.9832 75.9599 48.2259 78.9424 48.2259 78.9424C48.2259 78.9424 50.9599 80.4337 50.7114 83.1677C50.4628 85.9017 50.2143 88.1387 50.7114 88.3872C51.2085 88.6358 51.7056 88.6358 51.457 89.3814C51.2085 90.127 51.9541 90.8727 52.2027 91.1212C52.4512 91.3698 52.9483 90.8727 52.4512 91.6183C51.9541 92.364 52.2027 92.6125 52.4512 92.8611C52.6998 93.1096 52.9483 93.1096 52.6998 93.6067C52.4512 94.1038 43.255 97.3349 42.7579 97.3349C42.2608 97.3349 42.2608 96.8378 42.5094 96.0922C42.7579 95.3465 43.7521 94.6009 42.7579 94.3523C41.7637 94.1038 41.5152 94.1038 41.5152 92.861C41.5152 91.6183 37.2899 84.1619 37.2899 84.1619C37.2899 84.1619 35.55 78.4453 37.2899 75.9599C39.0297 73.4744 40.2724 71.7346 41.2666 71.2375C42.2608 70.7404 43.5035 71.2375 43.5035 71.2375Z" fill="#218549"/>
<path d="M35.3017 82.9192L32.3192 91.1212L26.3541 108.768C26.3541 108.768 20.1404 117.467 24.3657 116.97C28.591 116.473 29.0881 108.768 29.0881 108.768L34.8046 95.098L40.0241 84.659L35.3017 82.9192Z" fill="#FFB9B9"/>
<path d="M38.2841 75.7114L37.2899 75.9599C37.2899 75.9599 33.8103 82.9192 34.5559 83.6649C35.3016 84.4105 39.2783 86.3989 40.0239 86.1503C40.7696 85.9018 41.7638 78.6939 41.7638 78.6939L38.2841 75.7114Z" fill="#218549"/>
<path d="M38.5771 65.8361C40.5054 64.9882 42.8389 63.132 45.0547 61.6002C45.7729 61.1038 46.4722 60.5828 47.168 60.0555C48.5703 58.9927 51.945 58.624 54.8577 60.4916C58.1868 62.6263 59.8114 66.032 58.9101 67.4377C58.1649 68.5998 55.6914 68.396 52.9755 67.0845C52.5937 69.6289 51.7206 72.1646 50.7667 73.6522C48.6084 77.0183 46.7926 73.8448 43.4265 71.6865C40.0604 69.5281 34.9166 67.4456 38.5771 65.8361Z" fill="#2F2E41"/>
<path d="M83.731 122.977C90.0716 122.977 95.2117 117.837 95.2117 111.496C95.2117 105.156 90.0716 100.016 83.731 100.016C77.3903 100.016 72.2502 105.156 72.2502 111.496C72.2502 117.837 77.3903 122.977 83.731 122.977Z" fill="#218549"/>
<path d="M139.441 51.6462V72.8589L140.382 72.3491V74.7958L141.511 77.8072C141.511 77.8072 142.64 77.8072 142.64 78.3718C142.64 78.9364 141.511 79.8775 141.511 79.8775H139.441V89.8851L140.758 86.8412H143.205L144.899 90.2289C144.899 90.2289 143.769 90.6054 143.769 91.3582C143.769 92.111 145.087 93.6167 144.899 94.5577C144.711 95.4988 143.958 97.0044 143.393 97.5691L140.946 100.016H139.441V165.701H150.357V51.6462H139.441Z" fill="#3F3D56"/>
<path d="M133.23 100.957L136.053 99.451C136.053 99.451 136.806 102.274 136.053 102.839C135.3 103.403 131.724 104.909 131.724 104.909L133.982 107.168H130.406L133.23 100.957Z" fill="#3F3D56"/>
<path d="M126.196 163.993L127.098 164.488C127.098 164.488 125.895 165.083 125.582 164.974C125.268 164.865 124.305 164.18 124.305 164.18L123.477 165.073L123.188 164.172L126.196 163.993Z" fill="#3F3D56"/>
<path d="M128.811 162.777C128.811 162.777 125.765 160.865 128.421 161.322C130.05 161.598 131.707 161.677 133.355 161.558L133.745 163.012L128.811 162.777Z" fill="#3F3D56"/>
<path d="M132.655 165.656C132.655 165.656 129.829 165.025 132.022 164.667C133.372 164.442 134.693 164.064 135.958 163.542L136.592 164.531L132.655 165.656Z" fill="#3F3D56"/>
<path d="M133.418 115.261V114.131H136.429V117.707L133.418 115.261Z" fill="#3F3D56"/>
</g>
<defs>
<clipPath id="clip0_604_1532">
<rect width="175.828" height="147.244" fill="white" transform="translate(7.28125 21.8439)"/>
</clipPath>
</defs>
</svg>
