<svg width="329" height="67" viewBox="0 0 329 67" fill="none" xmlns="http://www.w3.org/2000/svg">
<rect width="329" height="67" rx="8" fill="#D9D9D9"/>
<path d="M156 31C156 29.8954 156.895 29 158 29H158.93C159.598 29 160.223 28.6658 160.594 28.1094L161.406 26.8906C161.777 26.3342 162.402 26 163.07 26H166.93C167.598 26 168.223 26.3342 168.594 26.8906L169.406 28.1094C169.777 28.6658 170.402 29 171.07 29H172C173.105 29 174 29.8954 174 31V40C174 41.1046 173.105 42 172 42H158C156.895 42 156 41.1046 156 40V31Z" stroke="#A3A3A3" stroke-width="2" stroke-linecap="round" stroke-linejoin="round"/>
<path d="M168 35C168 36.6569 166.657 38 165 38C163.343 38 162 36.6569 162 35C162 33.3431 163.343 32 165 32C166.657 32 168 33.3431 168 35Z" stroke="#A3A3A3" stroke-width="2" stroke-linecap="round" stroke-linejoin="round"/>
</svg>
