<?xml version="1.0" encoding="UTF-8"?>
<svg id="_レイヤー_2" data-name="レイヤー 2" xmlns="http://www.w3.org/2000/svg" viewBox="0 0 860.22 173.18">
  <defs>
    <style>
      .cls-1 {
        stroke: #000;
      }

      .cls-1, .cls-2, .cls-3 {
        stroke-width: 19.61px;
      }

      .cls-1, .cls-2, .cls-3, .cls-4 {
        fill: none;
        stroke-linecap: round;
        stroke-linejoin: round;
      }

      .cls-2 {
        stroke: #f5683a;
      }

      .cls-3 {
        stroke: #f3a828;
      }

      .cls-4 {
        stroke: #fff;
        stroke-width: 37.78px;
      }
    </style>
  </defs>
  <g id="_レイヤー_1-2" data-name="レイヤー 1">
    <g>
      <g>
        <path class="cls-1" d="M9.81,151V46.89C9.81,26.41,26.41,9.81,46.89,9.81h116.78c20.48,0,37.09,16.6,37.09,37.09v104.11"/>
        <g>
          <path class="cls-4" d="M96.01,96.71h-11.92c-15.9,0-28.79,12.89-28.79,28.79,0,15.9,12.89,28.79,28.79,28.79l116.91-.13"/>
          <path class="cls-2" d="M96.01,96.71h-11.92c-15.9,0-28.79,12.89-28.79,28.79,0,15.9,12.89,28.79,28.79,28.79l116.91-.13"/>
        </g>
        <g>
          <path class="cls-4" d="M153.58,111.67v-26.87c0-15.9-12.89-28.79-28.79-28.79-15.9,0-28.79,12.89-28.79,28.79v11.92"/>
          <path class="cls-3" d="M153.58,111.67v-26.87c0-15.9-12.89-28.79-28.79-28.79-15.9,0-28.79,12.89-28.79,28.79v11.92"/>
        </g>
      </g>
      <g>
        <path d="M396.5,37.85c-.15,0-.31,0-.43,0-4.54,.1-9.78,.33-15.59,.68-5.79,.35-11.83,.73-18.12,1.12-.1-2.45-.2-4.74-.3-6.86-.1-2.17-.2-4.11-.3-5.83-.12-2.07-.93-3.83-2.4-5.24-1.48-1.41-3.28-2.13-5.36-2.13-2.3,0-4.24,.81-5.77,2.4-1.51,1.58-2.28,3.48-2.28,5.66,0,1.73,.08,3.75,.23,5.98,.15,2.16,.27,4.58,.41,7.17,0,0-.05,.04-.19,.08-8.26,.51-16.15,1.06-23.43,1.65-7.42,.6-13.49,1.01-18.08,1.21-1.96,.12-3.69,.92-5.14,2.37-1.48,1.48-2.23,3.29-2.23,5.38,0,2.3,.8,4.26,2.38,5.83,1.48,1.49,3.26,2.24,5.29,2.24,.15,0,.31,0,.45-.01,4.68-.2,10.78-.58,18.15-1.13,7.35-.54,15.22-1.07,23.38-1.57l.59,14.51s-.02,0-.04,0c-1.36,.1-2.8,.15-4.27,.15h-4.37c-3.09,0-6.24-.07-9.36-.22-3.16-.15-6.35-.33-9.57-.53-.16,0-.31-.01-.47-.01-2,0-3.83,.7-5.44,2.09-1.78,1.53-2.68,3.55-2.68,5.98,0,1.97,.71,3.74,2.11,5.26,1.41,1.54,3.18,2.37,5.24,2.49,2.64,.2,5.56,.37,8.94,.53,3.24,.15,6.67,.23,10.17,.23h4.98c1.71,0,3.45-.05,5.07-.15,0,0,0,.02,0,.03,.2,3.07,.32,6.04,.37,8.83,.05,2.77,.12,5.39,.21,7.91h0c-1.69-.2-3.39-.35-5.04-.45-1.7-.1-3.33-.15-4.84-.15-9.6,0-17.12,1.75-22.35,5.21-5.43,3.58-8.18,8.04-8.18,13.25,0,1.31,.17,2.65,.51,4.02,.97,3.33,2.76,6.35,5.33,8.97,2.54,2.59,5.67,4.66,9.31,6.13,3.63,1.47,7.54,2.22,11.62,2.22,15.5,0,24.99-6.96,28.2-20.7,4.29,1.37,8.43,3.04,12.28,4.94,3.94,1.95,7.75,3.99,11.33,6.08,1.11,.62,2.41,.94,3.86,.94,2.06,0,3.9-.7,5.47-2.09,1.62-1.43,2.44-3.44,2.44-5.97,0-3.52-1.67-6.25-4.86-7.91-5.25-2.62-10.34-4.87-15.14-6.7-4.8-1.82-9.48-3.35-13.93-4.57-.04,0-.1-.02-.16-.03,0-.04,0-.09,0-.15-.1-2.9-.18-6.13-.23-9.63-.05-3.56-.18-7.29-.38-10.99,0-.03,0-.06,0-.09,0,0,.02,0,.03,0,4.55-.3,9.12-.74,13.58-1.29,4.5-.56,8.81-1.19,12.76-1.89,1.88-.25,3.43-1.13,4.62-2.64,1.15-1.46,1.74-3.13,1.74-4.95,0-2.56-1-4.63-2.96-6.17-1.55-1.21-3.28-1.82-5.16-1.82-.44,0-.9,.03-1.41,.11-3.66,.69-7.54,1.3-11.53,1.8-3.9,.49-7.98,.89-12.14,1.19-.1-2.55-.17-5.05-.22-7.51-.05-2.55-.18-5.06-.38-7.36,0-.04,0-.07,0-.09,0,0,12.77-.78,18.65-1.14,5.88-.35,10.93-.62,15.16-.83,2.06-.12,3.84-.92,5.3-2.38,1.48-1.48,2.23-3.29,2.23-5.38,0-2.28-.77-4.23-2.28-5.81-1.44-1.5-3.25-2.25-5.38-2.25Zm-51.65,86.96c-1.62,1.67-4.53,2.51-8.64,2.51s-7.14-.63-9.43-1.87c-1.38-.75-3.03-1.91-3.03-3.2,0-1.03,1.31-1.94,2.41-2.51,1.9-1,5.15-1.55,9.73-1.65,1.22-.11,2.44-.17,3.62-.17,.89,0,1.77,.03,2.64,.09,2.02,.14,4.01,.36,5.92,.64-.47,2.4-1.52,4.41-3.22,6.15Z"/>
        <path d="M538.17,83.58c-6-4.01-12.99-6.05-20.78-6.05-5.58,0-11.49,1.2-17.56,3.57-6.06,2.36-12.05,6.16-17.84,11.33-.02,.02-.04,.04-.07,.07,.75-4.4,1.62-8.82,2.61-13.16,1.1-4.83,2.31-9.76,3.59-14.72,0,0,.07-.06,.28-.12,6.63-.91,13.32-2.18,19.89-3.79,6.6-1.61,12.82-3.5,18.5-5.63,1.59-.61,2.82-1.59,3.64-2.92,.79-1.28,1.19-2.72,1.19-4.29,0-2.42-.85-4.4-2.51-5.89-1.62-1.44-3.48-2.17-5.54-2.17-.97,0-1.95,.18-2.91,.54-4.76,1.79-9.54,3.32-14.2,4.56-4.49,1.2-8.92,2.2-13.08,2.97,.95-2.76,1.91-5.5,2.86-8.22,1-2.86,2.01-5.7,3.01-8.49,.36-.96,.54-1.89,.54-2.76,0-2.07-.76-3.94-2.26-5.57-1.53-1.65-3.53-2.49-5.94-2.49-3.47,0-6.06,1.76-7.53,5.18-1.31,3.83-2.64,7.78-4,11.85-1.39,4.16-2.74,8.36-4.01,12.48,0,.02,0,.03-.01,.05-.05,0-.12,0-.2,0-2.2,.1-4.33,.18-6.38,.22-2.05,.05-3.92,.08-5.62,.08h-6.03c-2.18,0-4.09,.77-5.66,2.28-1.59,1.53-2.4,3.47-2.4,5.78,0,1.97,.68,3.71,2.03,5.18,1.36,1.48,3.1,2.3,5.17,2.42,1.42,.1,2.88,.18,4.35,.23,1.47,.05,3.02,.08,4.65,.08h2.94c.86,0,1.76-.04,2.67-.12-1.57,6.61-2.99,13.34-4.22,20.02-1.26,6.84-2.25,13.78-2.96,20.71-.12,2.57,.71,4.91,2.45,6.95,1.78,2.08,4.07,3.14,6.81,3.14,3.89,0,6.97-1.57,9.14-4.65,5.27-7.23,10.94-12.41,16.85-15.41,5.91-3,11.42-4.52,16.4-4.52,4.17,0,7.88,.83,11.03,2.48,3.11,1.63,5.43,3.75,6.89,6.31,1.48,2.59,2.23,5.25,2.23,7.9,0,3.27-1.26,6.44-3.74,9.43-2.54,3.06-6.48,5.58-11.69,7.5-5.3,1.94-12.11,2.93-20.25,2.93h-3.17c-1.06,0-2.14-.05-3.16-.14-.3-.03-.6-.05-.89-.05-1.86,0-3.57,.66-5.09,1.97-1.78,1.53-2.68,3.5-2.68,5.83,0,1.97,.71,3.74,2.11,5.26,1.38,1.5,3.07,2.39,5.08,2.64,1.27,.1,2.53,.15,3.73,.15h3.47c9.97,0,18.35-1.2,24.92-3.55,6.6-2.37,11.91-5.53,15.76-9.38,3.85-3.85,6.62-7.97,8.24-12.27,1.61-4.27,2.43-8.34,2.43-12.12,0-2.75-.33-5.17-.96-7.19-2-6.84-6.07-12.35-12.11-16.4Z"/>
        <path d="M671.58,44.8h-56.88c-2.3,0-4.27,.83-5.85,2.47-1.57,1.63-2.36,3.55-2.36,5.74,0,2.3,.8,4.26,2.38,5.83,1.58,1.58,3.54,2.38,5.83,2.38h56.27c8.09,0,11.86,3.86,11.86,12.16v29.27c0,5.07-1.09,8.98-3.23,11.63-2.1,2.59-5.07,3.85-9.08,3.85h-55.22c-2.18,0-4.11,.79-5.74,2.36-1.64,1.58-2.47,3.55-2.47,5.85s.8,4.26,2.38,5.83c1.57,1.58,3.54,2.38,5.83,2.38h55.82c8.63,0,15.66-2.98,20.9-8.85,5.2-5.83,7.83-13.58,7.83-23.05v-29.27c0-8.69-2.55-15.7-7.57-20.83-5.03-5.14-12-7.74-20.7-7.74Z"/>
        <path d="M858.1,79.73c-1.48-1.85-3.48-2.79-5.94-2.79-2.19,0-4.1,.8-5.68,2.38-6.96,6.96-14,13.3-20.93,18.83-6.92,5.52-13.5,10.19-19.53,13.85-8.58,5.17-15.29,7.79-19.94,7.79-1.89,0-7.63,0-7.63-12.31V38.98c0-2.29-.83-4.28-2.45-5.91-1.63-1.63-3.61-2.45-5.91-2.45s-4.27,.83-5.85,2.47c-1.57,1.62-2.36,3.6-2.36,5.89V108.96c-.1,8.87,1.89,15.75,5.92,20.47,4.08,4.78,9.73,7.21,16.77,7.21,4.17,0,8.8-.89,13.75-2.64,4.9-1.73,10.22-4.37,15.82-7.83,6.25-3.93,13.17-8.81,20.55-14.48,7.4-5.69,15.08-12.35,22.84-19.81,1.78-1.78,2.68-3.94,2.68-6.43,0-2.27-.74-4.22-2.12-5.71Z"/>
      </g>
    </g>
  </g>
</svg>