<svg width="1230" height="1230" viewBox="0 0 1230 1230" fill="none" xmlns="http://www.w3.org/2000/svg">
<path d="M900.195 864.695C899.823 864.24 899.454 863.783 899.088 863.326C898.722 862.87 898.358 862.411 897.995 861.951C897.632 861.492 897.271 861.031 896.912 860.569C896.552 860.107 896.194 859.643 895.838 859.176C895.242 845.783 895.234 832.508 895.813 819.351C896.38 806.289 897.524 793.383 899.247 780.633C900.949 767.98 903.203 755.522 906.011 743.259C908.797 731.09 912.116 719.15 915.971 707.441C916.41 706.091 916.857 704.746 917.312 703.407C917.767 702.068 918.231 700.737 918.703 699.415C919.173 698.087 919.651 696.765 920.137 695.449C920.623 694.132 921.117 692.821 921.617 691.515C925.329 681.737 929.415 672.199 933.875 662.9C938.304 653.666 943.088 644.687 948.226 635.964C953.324 627.301 958.759 618.906 964.533 610.778C970.264 602.71 976.315 594.924 982.685 587.42L983.689 586.243L984.696 585.073L985.707 583.908L986.72 582.75L987.451 581.918L988.188 581.09C988.436 580.815 988.684 580.541 988.933 580.268C989.182 579.995 989.435 579.725 989.692 579.458L990.297 579.139L990.898 578.821L991.497 578.505L992.094 578.19L992.131 578.178L992.169 578.161L992.206 578.143L992.244 578.13L992.485 578.003L992.723 577.874L992.956 577.746L993.183 577.617L994.224 577.078L995.26 576.548L996.296 576.019L997.324 575.484L996.54 575.105L994.569 574.158L994.583 574.15C994.752 574.22 994.92 574.293 995.086 574.371C995.253 574.449 995.42 574.523 995.588 574.596C995.758 574.672 995.925 574.748 996.089 574.824C996.254 574.899 996.42 574.977 996.588 575.056L996.778 575.135L996.971 575.214L997.166 575.295C997.231 575.32 997.294 575.35 997.355 575.384C997.409 575.413 997.466 575.436 997.524 575.454L997.694 575.524L997.864 575.594L998.033 575.664C1005.21 578.842 1012.41 582.068 1019.51 585.451C1026.62 588.834 1033.61 592.36 1040.42 596.154C1047.21 599.919 1053.79 604.027 1060.13 608.459C1066.45 612.869 1072.44 617.715 1078.03 622.959C1083.94 628.535 1089.23 634.696 1093.8 641.34C1098.33 647.867 1102.05 654.882 1104.89 662.242C1107.62 669.248 1109.25 676.61 1109.72 684.083C1110.17 691.271 1109.12 698.473 1106.64 705.263C1106.3 706.148 1105.94 707.021 1105.55 707.882C1105.16 708.742 1104.75 709.59 1104.31 710.424C1103.87 711.259 1103.4 712.079 1102.91 712.884C1102.42 713.689 1101.9 714.479 1101.36 715.255C1101.13 715.578 1100.9 715.899 1100.67 716.216C1100.43 716.534 1100.19 716.848 1099.95 717.161C1099.71 717.472 1099.47 717.783 1099.22 718.093C1098.97 718.402 1098.72 718.709 1098.47 719.014C1093.76 724.722 1087.79 729.332 1080.99 732.498C1074.15 735.655 1066.71 737.436 1059.14 737.731C1051.18 738.053 1043.22 736.938 1035.69 734.444C1027.6 731.779 1020.09 727.709 1013.52 722.435C1011.25 720.622 1009.1 718.676 1007.08 716.606C1005.08 714.555 1003.21 712.386 1001.48 710.111C999.775 707.856 998.214 705.499 996.813 703.054C995.422 700.628 994.196 698.116 993.141 695.536C992.646 703.55 993.934 711.574 996.918 719.067C1000.07 726.944 1004.35 734.354 1009.63 741.08C1015.22 748.241 1021.41 754.937 1028.16 761.098C1034.94 767.384 1042.15 773.276 1049.27 778.703C1056.39 784.13 1063.77 789.68 1070.91 795.468C1078.04 801.159 1084.83 807.239 1091.24 813.678C1097.46 819.898 1102.96 826.753 1107.64 834.121C1112.25 841.395 1115.58 849.352 1117.49 857.674C1119.55 866.738 1119.44 876.134 1117.19 885.153C1116.09 889.541 1114.53 893.809 1112.53 897.888C1110.52 902.001 1108.1 905.92 1105.32 909.592L1105.06 909.928L1104.8 910.262L1104.53 910.595L1104.26 910.927C1097.47 919.501 1088.94 926.652 1079.2 931.944C1074.29 934.606 1069.12 936.786 1063.77 938.451C1058.28 940.156 1052.64 941.329 1046.92 941.954C1036.03 942.923 1025.05 942.316 1014.35 940.153C1003.33 937.924 992.613 934.462 982.422 929.837C971.886 925.074 961.814 919.406 952.329 912.9C942.76 906.36 933.701 899.15 925.224 891.33C922.972 889.257 920.76 887.146 918.589 884.996C916.418 882.847 914.288 880.661 912.201 878.441C910.11 876.218 908.065 873.962 906.067 871.672C904.068 869.383 902.111 867.057 900.195 864.695Z" fill="#F2F2F2"/>
<path d="M1075.25 709.52C1068.52 706.146 1062.05 702.311 1055.89 698.044C1043.58 689.524 1032.59 679.361 1023.23 667.86C1018.59 662.153 1014.39 656.127 1010.66 649.83C1007.55 644.51 1004.79 639.006 1002.39 633.351C1000.05 627.833 998.08 622.175 996.497 616.412C994.951 610.783 993.799 605.06 993.049 599.282C992.313 593.621 991.99 587.918 992.083 582.214C992.091 581.893 992.099 581.573 992.106 581.256C992.113 580.938 992.12 580.619 992.129 580.297C992.138 579.975 992.15 579.658 992.167 579.345L992.216 578.397C991.934 578.612 991.652 578.829 991.37 579.049L990.528 579.71L989.69 580.377L988.855 581.045L988.318 581.474L987.78 581.907L987.245 582.342L986.715 582.778L987.445 581.948L988.194 581.092C988.442 580.817 988.69 580.543 988.939 580.27C989.188 579.997 989.441 579.728 989.698 579.461L990.303 579.141L990.904 578.824L991.491 578.508L992.088 578.193L992.125 578.181L992.163 578.164L992.2 578.146L992.238 578.133L992.479 578.006L992.718 577.878L992.951 577.749L993.179 577.621L994.219 577.082L995.256 576.551L996.292 576.022L997.328 575.491L996.518 575.103L994.548 574.154L994.561 574.146C994.731 574.216 994.899 574.29 995.065 574.368C995.231 574.445 995.399 574.52 995.567 574.592C995.736 574.669 995.903 574.744 996.068 574.82C996.232 574.896 996.398 574.973 996.566 575.053L996.756 575.131L996.949 575.211L997.144 575.291C997.209 575.316 997.272 575.346 997.332 575.38L997.314 575.683L997.291 575.966L997.275 576.248L997.258 576.533C996.532 586.141 997.05 595.799 998.801 605.282C1000.6 615.044 1003.56 624.574 1007.61 633.684C1011.8 643.114 1017.04 652.077 1023.23 660.416C1029.62 669.041 1036.95 676.985 1045.09 684.112C1053.28 691.187 1062.22 697.414 1071.75 702.693C1076.46 705.298 1081.31 707.661 1086.27 709.771C1091.2 711.859 1096.24 713.688 1101.37 715.249C1101.14 715.572 1100.91 715.893 1100.68 716.21C1100.44 716.527 1100.2 716.842 1099.96 717.155C1099.72 717.466 1099.48 717.777 1099.23 718.087C1098.98 718.396 1098.73 718.703 1098.48 719.008C1096.5 718.375 1094.53 717.701 1092.57 716.987C1090.61 716.274 1088.67 715.521 1086.73 714.729C1084.79 713.937 1082.86 713.106 1080.95 712.236C1079.04 711.366 1077.14 710.46 1075.25 709.52Z" fill="white"/>
<path d="M942.05 781.324C939.847 778.147 937.767 774.911 935.811 771.616C933.855 768.321 932.027 764.98 930.327 761.592C928.628 758.204 927.058 754.774 925.617 751.301C924.177 747.828 922.873 744.324 921.704 740.79C921.107 738.916 920.557 737.035 920.052 735.148C919.548 733.26 919.091 731.369 918.682 729.476C918.273 727.582 917.91 725.684 917.592 723.782C917.275 721.88 917.007 719.98 916.788 718.081C916.677 717.196 916.578 716.309 916.489 715.421C916.401 714.533 916.323 713.645 916.254 712.758C916.186 711.87 916.128 710.983 916.08 710.097C916.032 709.212 915.994 708.327 915.965 707.444C916.404 706.094 916.851 704.749 917.306 703.41C917.761 702.07 918.224 700.737 918.693 699.409C919.163 698.081 919.641 696.758 920.127 695.442C920.614 694.126 921.108 692.814 921.611 691.508C921.501 692.602 921.408 693.7 921.33 694.8C921.252 695.9 921.19 697.003 921.145 698.11C921.099 699.217 921.069 700.326 921.055 701.439C921.042 702.551 921.044 703.665 921.062 704.782C921.06 705.39 921.066 705.998 921.079 706.607C921.092 707.215 921.108 707.823 921.129 708.432C921.151 709.04 921.179 709.649 921.212 710.258C921.244 710.866 921.282 711.475 921.324 712.083C921.809 718.911 922.918 725.684 924.638 732.323C926.381 739.042 928.654 745.623 931.438 752.006C934.275 758.513 937.547 764.835 941.232 770.931C944.98 777.135 949.079 783.135 953.509 788.903C958.277 795.131 963.318 801.195 968.63 807.095C973.942 812.994 979.456 818.732 985.171 824.309C990.892 829.881 996.78 835.28 1002.84 840.507C1008.89 845.733 1015.05 850.78 1021.31 855.645C1027.72 860.64 1034.26 865.446 1040.92 870.062C1047.59 874.678 1054.37 879.091 1061.25 883.302C1068.14 887.512 1075.12 891.517 1082.21 895.317C1089.3 899.116 1096.47 902.699 1103.72 906.064C1104.06 906.221 1104.36 906.436 1104.61 906.697C1104.86 906.953 1105.06 907.248 1105.2 907.569C1105.35 907.886 1105.43 908.225 1105.45 908.571C1105.48 908.918 1105.43 909.267 1105.31 909.597C1105.28 909.74 1105.22 909.879 1105.16 910.012C1105.09 910.141 1105.02 910.263 1104.93 910.377C1104.84 910.49 1104.74 910.594 1104.63 910.686C1104.51 910.778 1104.39 910.857 1104.26 910.924C1104.13 910.984 1103.98 911.027 1103.84 911.053C1103.69 911.078 1103.54 911.085 1103.39 911.075C1103.24 911.066 1103.09 911.038 1102.94 910.994C1102.79 910.951 1102.64 910.891 1102.51 910.815C1101.61 910.4 1100.72 909.984 1099.82 909.565C1098.93 909.147 1098.03 908.726 1097.14 908.303C1096.25 907.879 1095.36 907.451 1094.47 907.02C1093.58 906.588 1092.69 906.151 1091.8 905.707C1084.41 902.04 1077.12 898.155 1069.93 894.049C1062.74 889.944 1055.65 885.624 1048.68 881.09C1041.7 876.557 1034.86 871.821 1028.13 866.881C1021.41 861.941 1014.83 856.804 1008.39 851.472C1002.18 846.337 996.037 841.029 990.044 835.541C984.051 830.053 978.209 824.389 972.585 818.544C966.961 812.699 961.559 806.677 956.443 800.472C951.327 794.267 946.51 787.888 942.05 781.324Z" fill="white"/>
<path d="M1081.26 271.322L1075.96 271.986L1111.45 143.337C1114.07 134.746 1114.49 125.672 1112.69 116.889C1111.13 109.712 1107.27 103.192 1101.66 98.2543C1095.77 93.3175 1088.57 90.0872 1080.87 88.9363C1071.49 87.5335 1061.92 87.9476 1052.7 90.1542L811.503 143.207C803.084 145.179 795.026 148.381 787.607 152.701C779.538 157.335 772.034 162.83 765.236 169.083C758.242 175.459 751.964 182.53 746.506 190.178C741.175 197.581 736.829 205.602 733.571 214.053L481.202 884.462C477.006 895.485 474.28 906.98 473.09 918.668C471.985 929.044 472.507 939.522 474.636 949.749C476.414 958.634 480.127 967.054 485.529 974.448C490.483 981.172 497.463 986.257 505.518 989.01L760.363 1073.74C771.684 1077.47 783.836 1078.17 795.535 1075.77C808.04 1073.14 819.802 1067.9 830.002 1060.44C841.455 1052.13 851.305 1041.93 859.098 1030.32C867.73 1017.56 874.18 1003.55 878.201 988.814L1049.06 369.494L1054.42 369.079L1081.26 271.322Z" fill="#2F2E41"/>
<path d="M1062.82 264.199L1057.53 264.863L1093.02 136.214C1095.63 127.624 1096.06 118.55 1094.26 109.766C1092.7 102.589 1088.83 96.0693 1083.22 91.1318C1077.34 86.1949 1070.13 82.9646 1062.43 81.8137C1053.05 80.411 1043.48 80.825 1034.27 83.0316L793.067 136.084C784.648 138.057 776.59 141.258 769.171 145.578C761.103 150.212 753.599 155.708 746.8 161.96C739.806 168.336 733.528 175.407 728.071 183.055C722.74 190.458 718.394 198.48 715.136 206.93L462.766 877.339C458.571 888.363 455.845 899.857 454.654 911.545C453.55 921.922 454.071 932.4 456.201 942.626C457.979 951.512 461.691 959.931 467.093 967.326C472.048 974.049 479.027 979.134 487.082 981.888L741.928 1066.62C753.249 1070.34 765.401 1071.04 777.099 1068.64C789.605 1066.01 801.367 1060.78 811.566 1053.31C823.02 1045 832.869 1034.81 840.663 1023.2C849.295 1010.44 855.745 996.428 859.765 981.692L1030.62 362.371L1035.98 361.956L1062.82 264.199Z" fill="#3F3D56"/>
<path d="M1032.14 99.8177L996.68 107.32C997.067 110.282 996.762 113.291 995.786 116.125C994.681 119.439 993.079 122.579 991.031 125.445C986.421 131.95 980.268 137.297 973.085 141.041C972.224 141.483 971.367 141.891 970.513 142.265C969.659 142.639 968.805 142.978 967.95 143.283C967.1 143.588 966.255 143.858 965.415 144.092C964.576 144.325 963.746 144.522 962.926 144.683L824.302 171.793C821.73 172.37 819.051 172.341 816.494 171.707C814.434 171.174 812.618 169.992 811.331 168.349C810.035 166.585 809.303 164.493 809.226 162.331C809.12 159.573 809.571 156.821 810.555 154.231C810.801 153.531 811.081 152.827 811.396 152.119C811.711 151.41 812.054 150.701 812.425 149.993C812.793 149.28 813.196 148.572 813.632 147.866C814.069 147.161 814.529 146.457 815.013 145.753L788.765 151.307C782.443 152.739 776.389 155.105 770.815 158.322C764.725 161.787 759.062 165.909 753.935 170.609C748.649 175.41 743.909 180.742 739.794 186.514C735.781 192.091 732.519 198.138 730.087 204.51L478.191 880.746C475.058 889.055 473.047 897.72 472.207 906.526C471.43 914.299 471.888 922.141 473.566 929.781C474.962 936.384 477.815 942.618 481.93 948.061C485.702 952.998 490.961 956.689 496.987 958.629L753.708 1039.18C762.178 1041.8 771.22 1042.2 779.899 1040.32C789.142 1038.27 797.824 1034.34 805.36 1028.78C813.788 1022.61 821.045 1015.08 826.805 1006.52C833.18 997.116 837.964 986.791 840.977 975.933L1075.54 139.955C1077.51 133.574 1077.87 126.831 1076.6 120.286C1075.5 114.923 1072.69 110.026 1068.57 106.278C1064.25 102.531 1058.91 100.048 1053.19 99.1179C1046.19 97.9835 1039.03 98.2215 1032.14 99.8177Z" fill="white"/>
<path d="M894.462 420.091H383.776V252.95H894.462V420.091Z" fill="white"/>
<path d="M894.421 420.499H384.049V241.756H894.421V420.499ZM394.222 409.985H884.248V252.27H394.222V409.985Z" fill="#E6E6E6"/>
<path d="M1088.22 539.441C1089.7 539.385 1091.17 539.628 1092.55 540.153C1093.86 540.658 1095.04 541.419 1096.03 542.387C1097.02 543.362 1097.8 544.522 1098.3 545.797C1098.84 547.149 1099.09 548.592 1099.02 550.039C1098.96 551.523 1098.61 552.982 1097.97 554.334C1097.35 555.66 1096.49 556.867 1095.42 557.895C1094.36 558.918 1093.12 559.746 1091.75 560.338C1090.36 560.94 1088.87 561.27 1087.35 561.31C1085.87 561.353 1084.39 561.098 1083.02 560.561C1081.72 560.047 1080.54 559.281 1079.56 558.308C1078.58 557.331 1077.82 556.17 1077.31 554.896C1076.79 553.55 1076.55 552.113 1076.61 550.675C1076.68 549.198 1077.03 547.747 1077.66 546.401C1078.28 545.088 1079.14 543.892 1080.19 542.872C1081.24 541.851 1082.48 541.022 1083.84 540.427C1085.22 539.823 1086.71 539.488 1088.22 539.441Z" fill="#F2F2F2"/>
<path d="M389.46 760.382C387.554 760.657 385.61 760.511 383.766 759.954C381.922 759.397 380.223 758.442 378.787 757.158C377.352 755.873 376.216 754.29 375.458 752.519C374.701 750.748 374.341 748.832 374.404 746.907L330.693 730.11L350.485 715.952L388.958 734.074C392.186 734.394 395.184 735.888 397.385 738.271C399.585 740.655 400.834 743.762 400.896 747.006C400.958 750.249 399.828 753.402 397.72 755.867C395.611 758.333 392.672 759.939 389.459 760.382L389.46 760.382Z" fill="#FFB7B7"/>
<path d="M364.483 748.331L371.307 724.258L370.972 724.029L307.044 680.603L251.782 625.154L219.591 638.015L221.705 648.204L221.843 648.329L295.316 714.138L295.384 714.171L364.483 748.331Z" fill="#3F3D56"/>
<path d="M298.994 803.32L200.057 789.452L208.764 728.743H281.602L298.994 803.32Z" fill="#FFB6B6"/>
<path d="M130.883 1100.59L151.178 1105.31L179.028 1029.27L149.074 1022.31L130.883 1100.59Z" fill="#FFB6B6"/>
<path d="M112 1133.26L126.554 1136.65L132.345 1123.51L135.806 1138.8L174.407 1147.77C176.257 1148.2 178.197 1148.02 179.942 1147.27C181.687 1146.52 183.147 1145.24 184.108 1143.6C185.069 1141.96 185.481 1140.06 185.285 1138.17C185.088 1136.28 184.292 1134.5 183.014 1133.09L157.135 1104.64L160.363 1090.75L127.49 1085.15L112 1133.26Z" fill="#2F2E41"/>
<path d="M256.109 1111.9H276.946L286.86 1031.53H256.109V1111.9Z" fill="#FFB6B6"/>
<path d="M245.113 1148H260.055L262.722 1133.89L269.553 1148H309.183C311.083 1148 312.933 1147.39 314.463 1146.27C315.993 1145.14 317.123 1143.56 317.689 1141.74C318.254 1139.93 318.225 1137.98 317.605 1136.19C316.986 1134.39 315.809 1132.84 314.245 1131.76L282.598 1109.9V1095.64L249.311 1097.63L245.113 1148Z" fill="#2F2E41"/>
<path d="M198.806 779.15L295.562 771.454C324.113 838.149 305.959 944.621 284.017 1064.48L252.896 1068.5L250.482 875.906L172.467 1055.08L140.032 1053.42L198.806 779.15Z" fill="#2F2E41"/>
<path d="M255.125 603.521V570.787C255.125 559.154 250.504 547.998 242.278 539.772C234.052 531.546 222.896 526.925 211.263 526.925C199.629 526.925 188.473 531.546 180.247 539.772C172.021 547.998 167.4 559.154 167.4 570.787C159.669 586.897 164.505 594.556 167.4 603.521C167.402 605.082 168.024 606.579 169.128 607.683C170.232 608.787 171.728 609.408 173.289 609.411H249.233C250.795 609.409 252.292 608.788 253.396 607.684C254.501 606.58 255.123 605.083 255.125 603.521Z" fill="#2F2E41"/>
<path d="M222.087 608.917C239.848 608.917 254.246 594.519 254.246 576.758C254.246 558.997 239.848 544.599 222.087 544.599C204.326 544.599 189.928 558.997 189.928 576.758C189.928 594.519 204.326 608.917 222.087 608.917Z" fill="#FFB7B7"/>
<path d="M265.502 573.405C265.491 564.206 261.832 555.387 255.328 548.882C248.823 542.378 240.004 538.719 230.805 538.708H224.258C215.059 538.719 206.239 542.378 199.735 548.882C193.23 555.387 189.571 564.206 189.561 573.405V574.06C194.464 577.412 199.119 577.903 203.396 574.06L208.115 560.847L209.059 574.06H216.21L218.594 567.394L219.071 574.06C228.73 582.286 246.995 578.344 265.502 574.06V573.405Z" fill="#2F2E41"/>
<path d="M203.334 746.486L285.214 743.371L289.791 689.805C293.32 680.001 293.378 671.576 289.96 664.784C287.021 659.2 282.083 654.932 276.133 652.832L258.217 631.193C255.912 628.412 253.018 626.177 249.744 624.651C246.47 623.125 242.898 622.345 239.286 622.367L192.732 622.686C191.61 622.011 184.804 618.552 171.38 624.368C156.821 630.678 160.202 652.601 160.238 652.821L160.272 653.027L160.431 653.167L191.396 679.249L203.334 746.486Z" fill="#3F3D56"/>
<path d="M576.465 652.306C523.629 711.85 364.659 723.208 261.183 832.507C226.491 726.86 275.636 544.49 324.613 474.943C348.133 441.546 383.957 418.859 424.204 411.875C464.45 404.89 505.823 414.179 539.221 437.699C608.768 486.676 632.922 588.681 576.465 652.306Z" fill="#F5683A"/>
<path d="M448.443 595.183C476.185 595.183 498.674 572.695 498.674 544.953C498.674 517.211 476.185 494.723 448.443 494.723C420.702 494.723 398.213 517.211 398.213 544.953C398.213 572.695 420.702 595.183 448.443 595.183Z" fill="white"/>
<path d="M218.72 887.211C236.89 887.211 251.62 872.481 251.62 854.311C251.62 836.141 236.89 821.411 218.72 821.411C200.55 821.411 185.82 836.141 185.82 854.311C185.82 872.481 200.55 887.211 218.72 887.211Z" fill="#F5683A"/>
<path d="M181.082 851.932C179.65 850.645 178.516 849.059 177.762 847.287C177.008 845.515 176.652 843.599 176.718 841.674C176.784 839.749 177.271 837.862 178.145 836.146C179.019 834.429 180.259 832.925 181.777 831.74L166.656 787.422L190.214 793.541L200.949 834.686C202.774 837.369 203.55 840.628 203.131 843.845C202.712 847.062 201.127 850.014 198.677 852.14C196.227 854.267 193.082 855.42 189.838 855.382C186.594 855.344 183.476 854.117 181.077 851.933L181.082 851.932Z" fill="#FFB7B7"/>
<path d="M174.328 825.037L197.185 814.851L189.506 737.542L196.657 659.586L166.14 643.116L159.675 651.269V651.454L156.249 750.031L156.267 750.106L174.328 825.037Z" fill="#3F3D56"/>
<path d="M475.456 830.07C482.757 830.07 488.676 824.151 488.676 816.85C488.676 809.549 482.757 803.631 475.456 803.631C468.155 803.631 462.236 809.549 462.236 816.85C462.236 824.151 468.155 830.07 475.456 830.07Z" fill="#F2F2F2"/>
<path d="M639.681 671.718C646.982 671.718 652.9 665.8 652.9 658.499C652.9 651.198 646.982 645.279 639.681 645.279C632.38 645.279 626.461 651.198 626.461 658.499C626.461 665.8 632.38 671.718 639.681 671.718Z" fill="#F2F2F2"/>
<path d="M185.81 407.592C193.111 407.592 199.03 401.674 199.03 394.373C199.03 387.072 193.111 381.153 185.81 381.153C178.509 381.153 172.591 387.072 172.591 394.373C172.591 401.674 178.509 407.592 185.81 407.592Z" fill="#F2F2F2"/>
<path opacity="0.2" d="M491.904 520.905C497.926 531.2 500.087 543.302 498.002 555.045C495.916 566.788 489.719 577.406 480.52 584.998C471.321 592.589 459.721 596.66 447.796 596.48C435.87 596.3 424.397 591.882 415.432 584.017C419.102 590.303 424.095 595.716 430.065 599.882C436.035 604.048 442.839 606.866 450.005 608.142C457.172 609.418 464.531 609.12 471.571 607.271C478.612 605.421 485.166 602.063 490.781 597.43C496.395 592.796 500.935 586.998 504.087 580.436C507.238 573.874 508.926 566.706 509.033 559.427C509.14 552.148 507.663 544.933 504.705 538.282C501.748 531.63 497.38 525.701 491.904 520.905Z" fill="#231F20"/>
<path opacity="0.2" d="M553.574 452.386C594.808 505.701 601.921 582.324 556.231 633.815C505.182 691.345 355.061 703.903 251.637 803.266C253.359 813.629 255.845 823.85 259.074 833.846C362.55 724.546 521.521 713.189 574.357 653.645C626.094 595.338 610.126 504.809 553.574 452.386Z" fill="#231F20"/>
<rect x="580.778" y="276.605" width="116.913" height="116.913" rx="17.9867" fill="#F2F2F2"/>
<rect x="444.754" y="276.605" width="116.913" height="116.913" rx="17.9867" fill="#F2F2F2"/>
<rect x="716.803" y="276.605" width="116.913" height="116.913" rx="17.9867" fill="#F2F2F2"/>
<path fill-rule="evenodd" clip-rule="evenodd" d="M464.828 309.046C473.609 300.266 487.844 300.266 496.625 309.046L503.21 315.632L509.795 309.046C518.575 300.266 532.811 300.266 541.591 309.046C550.372 317.827 550.372 332.062 541.591 340.843L503.21 379.224L464.828 340.843C456.048 332.062 456.048 317.827 464.828 309.046Z" fill="#F5683A"/>
<path d="M648.246 340.89C648.813 340.89 649.285 341.093 649.663 341.498C650.04 341.875 650.202 342.334 650.148 342.874L649.905 346.273C649.878 347.028 649.595 347.662 649.055 348.175C648.516 348.688 647.882 348.944 647.153 348.944H630.318C629.562 348.944 628.928 348.674 628.416 348.135C627.903 347.595 627.674 346.961 627.728 346.233C627.971 344.182 628.578 342.428 629.549 340.971C630.52 339.515 631.802 338.233 633.394 337.127C634.985 336.021 636.834 335.009 638.938 334.092C640.584 333.336 641.919 332.662 642.944 332.068C643.997 331.474 644.752 330.773 645.211 329.964C645.669 329.154 645.831 328.088 645.696 326.766C645.211 323.583 643.093 321.991 639.343 321.991C636.186 321.991 634.109 323.043 633.11 325.148C633.083 325.202 633.07 325.256 633.07 325.31C633.07 325.444 633.137 325.552 633.272 325.633C633.677 325.903 633.974 326.24 634.162 326.645C634.351 327.023 634.446 327.427 634.446 327.859C634.446 328.534 634.203 329.168 633.717 329.761C633.232 330.328 632.557 330.611 631.694 330.611C630.776 330.611 630.075 330.287 629.589 329.64C629.104 328.992 628.861 328.183 628.861 327.212C628.861 326.159 629.144 325.067 629.711 323.934C630.655 322.18 631.991 320.871 633.717 320.008C635.471 319.118 637.292 318.672 639.181 318.672C640.692 318.672 642.149 318.956 643.552 319.522C644.955 320.062 646.155 320.885 647.153 321.991C648.179 323.097 648.853 324.487 649.177 326.159C649.258 326.672 649.298 327.185 649.298 327.697C649.298 329.1 649.015 330.301 648.448 331.299C647.882 332.27 647.113 333.134 646.142 333.889C645.197 334.618 644.145 335.279 642.985 335.872C641.825 336.466 640.638 337.046 639.424 337.612C638.209 338.179 637.063 338.8 635.984 339.474C634.904 340.149 633.974 340.931 633.191 341.821C632.409 342.712 631.869 343.777 631.572 345.018V345.099C631.572 345.315 631.68 345.423 631.896 345.423H646.142C646.384 345.423 646.506 345.302 646.506 345.059C646.479 344.654 646.438 344.263 646.384 343.885C646.357 343.481 646.344 343.089 646.344 342.712C646.344 342.199 646.519 341.767 646.87 341.417C647.248 341.066 647.706 340.89 648.246 340.89Z" fill="#B6B6B6"/>
<path d="M781.475 333.404C781.34 333.457 781.273 333.525 781.273 333.606C781.273 333.66 781.354 333.714 781.516 333.768C784.645 334.901 786.21 337.208 786.21 340.688C786.21 342.334 785.738 343.804 784.794 345.099C783.876 346.394 782.608 347.42 780.989 348.175C779.398 348.904 777.59 349.268 775.566 349.268C772.949 349.268 770.737 348.661 768.929 347.447C767.122 346.206 765.948 344.506 765.408 342.347C765.328 342.051 765.274 341.781 765.247 341.538C765.22 341.268 765.206 340.998 765.206 340.729C765.206 339.703 765.462 338.853 765.975 338.179C766.515 337.504 767.243 337.167 768.16 337.167C769.024 337.167 769.685 337.451 770.143 338.017C770.629 338.584 770.872 339.218 770.872 339.919C770.872 340.405 770.751 340.877 770.508 341.336C770.292 341.767 769.928 342.105 769.415 342.347C769.199 342.428 769.132 342.577 769.213 342.793C770.049 344.897 772.167 345.949 775.566 345.949C776.295 345.949 777.064 345.855 777.873 345.666C778.71 345.45 779.492 345.14 780.221 344.735C780.949 344.303 781.543 343.777 782.001 343.157C782.46 342.509 782.689 341.754 782.689 340.89C782.689 340.27 782.622 339.663 782.487 339.069C782.352 338.449 782.042 337.882 781.556 337.37C781.07 336.83 780.288 336.385 779.209 336.034C778.157 335.683 776.7 335.467 774.838 335.387C774.406 335.36 774.029 335.198 773.705 334.901C773.408 334.577 773.26 334.199 773.26 333.768C773.26 333.336 773.422 332.972 773.745 332.675C774.069 332.351 774.447 332.176 774.878 332.149C779.816 331.906 782.285 330.179 782.285 326.969C782.285 326.159 782.042 325.363 781.556 324.581C781.07 323.799 780.355 323.151 779.411 322.638C778.467 322.126 777.307 321.87 775.931 321.87C772.882 321.87 770.831 322.868 769.779 324.864C769.752 324.918 769.739 324.972 769.739 325.026C769.739 325.161 769.806 325.269 769.941 325.35C770.346 325.62 770.643 325.957 770.831 326.362C771.047 326.766 771.155 327.185 771.155 327.616C771.155 328.291 770.912 328.925 770.427 329.518C769.968 330.085 769.307 330.368 768.444 330.368C767.553 330.368 766.838 330.045 766.299 329.397C765.786 328.749 765.53 327.927 765.53 326.928C765.53 326.712 765.543 326.483 765.57 326.24C765.597 325.971 765.651 325.701 765.732 325.431C766.353 323.326 767.567 321.654 769.375 320.413C771.209 319.172 773.395 318.551 775.931 318.551C777.603 318.551 779.06 318.821 780.301 319.36C781.543 319.873 782.568 320.561 783.377 321.424C784.214 322.288 784.834 323.205 785.239 324.176C785.644 325.148 785.846 326.078 785.846 326.969C785.846 328.372 785.455 329.64 784.672 330.773C783.89 331.906 782.824 332.783 781.475 333.404Z" fill="#B6B6B6"/>
</svg>
