<svg width="1230" height="1231" viewBox="0 0 1230 1231" fill="none" xmlns="http://www.w3.org/2000/svg">
<g clip-path="url(#clip0_596_1610)">
<path d="M932.578 677.294C932.667 799.948 885.029 917.823 799.746 1005.97C714.463 1094.13 598.227 1145.63 475.637 1149.6C470.457 1149.78 465.255 1149.86 460.03 1149.86C347.168 1150.03 238.004 1109.63 152.435 1036.04C140.523 1025.83 129.152 1015.05 118.319 1003.71C94.4564 978.736 73.3909 951.233 55.4971 921.689C29.9878 879.576 11.26 833.712 0 785.78V568.809C11.5184 519.814 30.8347 472.987 57.2103 430.121C72.2718 439.29 90.1069 442.795 107.518 440.007C124.93 437.218 140.778 428.319 152.223 414.905C163.668 401.49 169.96 384.438 169.972 366.805C169.983 349.171 163.714 332.111 152.287 318.681C220.555 260.145 304.096 222.281 393.115 209.528C482.135 196.774 572.945 209.659 654.903 246.673C659.679 248.831 664.409 251.07 669.095 253.391C825.212 330.539 932.578 491.378 932.578 677.294Z" fill="#F2F2F2"/>
<path d="M99.825 422.04C124.411 422.04 144.341 402.109 144.341 377.524C144.341 352.938 124.411 333.007 99.825 333.007C75.2393 333.007 55.3086 352.938 55.3086 377.524C55.3086 402.109 75.2393 422.04 99.825 422.04Z" fill="#F2F2F2"/>
<path d="M1023 1230.08L152.435 1228.73V782.434C152.934 782.367 153.487 782.299 154.094 782.218C161.783 781.233 178.025 779.331 200.903 777.591C254.903 773.49 345.825 770.293 448.361 782.218C463.995 784.039 479.873 786.225 495.993 788.774C509.389 790.919 522.896 793.352 536.517 796.072C542.439 797.259 548.374 798.509 554.323 799.822C567.287 802.669 580.282 805.821 593.309 809.279C637.23 820.757 680.062 836.059 721.313 855.009C738.553 863.036 755.524 871.791 772.089 881.382C796.412 895.392 819.656 911.197 841.629 928.664C926.48 996.342 993.713 1093.93 1023 1230.08Z" fill="#2F2E41"/>
<path d="M870.565 1230.08H0V783.783C0.499123 783.716 1.0522 783.648 1.65924 783.567C2.79239 783.419 4.10091 783.257 5.59835 783.082C14.2588 782.029 28.9492 780.424 48.469 778.94C62.0262 777.915 77.9172 776.944 95.7508 776.242C128.882 774.961 168.69 774.65 212.573 776.768C239.053 778.05 267.031 780.208 295.926 783.567C311.561 785.388 327.438 787.574 343.559 790.123C356.954 792.268 370.462 794.701 384.082 797.421C390.004 798.608 395.94 799.858 401.889 801.171C414.852 804.018 427.847 807.17 440.874 810.628C473.789 819.292 506.121 830.033 537.677 842.787C548.172 847.05 558.573 851.574 568.879 856.358C574.707 859.07 580.503 861.871 586.267 864.762C597.545 870.401 608.674 876.39 619.655 882.731C636.675 892.548 653.177 903.237 669.095 914.756C670.309 915.605 671.523 916.496 672.737 917.386C678.295 921.487 683.781 925.696 689.195 930.013C691.043 931.496 692.891 932.98 694.725 934.491C703.939 942.045 712.932 949.955 721.705 958.22C743.259 978.53 762.93 1000.75 780.48 1024.6C821.327 1080.15 852.813 1147.74 870.511 1229.84C870.525 1229.92 870.552 1230 870.565 1230.08Z" fill="#3F3D56"/>
<path opacity="0.1" d="M414.424 959.245C418.104 951.098 391.365 931.067 354.701 914.505C318.037 897.943 285.332 891.122 281.651 899.269C277.971 907.417 304.709 927.448 341.373 944.01C378.037 960.572 410.743 967.393 414.424 959.245Z" fill="black"/>
<path opacity="0.1" d="M547.972 992.97C551.653 984.822 524.914 964.791 488.25 948.229C451.586 931.667 418.881 924.846 415.2 932.994C411.52 941.141 438.258 961.172 474.922 977.734C511.586 994.296 544.292 1001.12 547.972 992.97Z" fill="black"/>
<path d="M95.7441 791.504V691.125" stroke="#3F3D56" stroke-width="2" stroke-miterlimit="10"/>
<path d="M95.7439 705.32C103.584 705.32 109.939 698.964 109.939 691.125C109.939 683.285 103.584 676.93 95.7439 676.93C87.9042 676.93 81.5488 683.285 81.5488 691.125C81.5488 698.964 87.9042 705.32 95.7439 705.32Z" fill="#3F3D56"/>
<path d="M95.7447 752.991C95.7447 752.991 93.7168 709.375 52.1455 714.445L95.7447 752.991Z" fill="#3F3D56"/>
<path d="M322.448 392.535L332.597 393.467L367.136 396.648L422.892 401.775L428.445 341.485C428.973 335.818 428.377 330.102 426.693 324.665C425.009 319.228 422.27 314.177 418.631 309.8C414.992 305.423 410.526 301.807 405.488 299.158C400.451 296.509 394.94 294.88 389.271 294.363C377.148 293.237 364.981 295.988 354.522 302.22C344.062 308.452 335.851 317.843 331.071 329.041L331.063 329.06C328.713 334.573 327.238 340.418 326.691 346.385L322.448 392.535Z" fill="#2F2E41"/>
<path d="M364.899 366.057C364.899 366.057 368.946 399.782 364.899 401.131C360.852 402.48 347.362 407.876 347.362 407.876L371.644 433.506L406.717 434.855L414.811 409.225L406.717 402.48L404.02 368.755L364.899 366.057Z" fill="#FFB8B8"/>
<path opacity="0.1" d="M364.899 366.057C364.899 366.057 368.946 399.782 364.899 401.131C360.852 402.48 347.362 407.876 347.362 407.876L371.644 433.506L406.717 434.855L414.811 409.225L406.717 402.48L404.02 368.755L364.899 366.057Z" fill="black"/>
<path d="M312.289 428.111L301.497 521.19L286.658 615.619C286.658 615.619 274.518 661.484 297.45 660.135C320.383 658.786 304.195 612.921 304.195 612.921L325.779 533.331L335.222 452.392L312.289 428.111Z" fill="#FFB8B8"/>
<path d="M456.63 429.46L466.073 525.237L521.381 577.847C521.381 577.847 557.804 596.733 551.059 608.874C544.314 621.015 506.543 588.639 506.543 588.639L440.442 541.425L436.396 482.07L440.442 422.715L456.63 429.46Z" fill="#FFB8B8"/>
<path d="M316.336 882.717C316.336 882.717 297.45 915.093 306.893 919.14C316.336 923.187 343.316 935.327 343.316 935.327C343.316 935.327 385.134 943.421 383.785 931.281C382.436 919.14 366.248 919.14 366.248 919.14C366.248 919.14 343.401 896.207 344.033 888.113C344.664 880.019 316.336 882.717 316.336 882.717Z" fill="#2F2E41"/>
<path opacity="0.1" d="M316.336 882.717C316.336 882.717 297.45 915.093 306.893 919.14C316.336 923.187 343.316 935.327 343.316 935.327C343.316 935.327 385.134 943.421 383.785 931.281C382.436 919.14 366.248 919.14 366.248 919.14C366.248 919.14 343.401 896.207 344.033 888.113C344.664 880.019 316.336 882.717 316.336 882.717Z" fill="black"/>
<path d="M435.046 618.317L439.093 639.901L409.416 759.96L391.879 778.846L346.014 888.113H312.289C312.289 888.113 333.873 803.127 350.061 777.497C366.248 751.866 393.228 621.015 393.228 621.015L435.046 618.317Z" fill="#2F2E41"/>
<path opacity="0.1" d="M379.064 712.071L403.345 716.118L409.416 759.96L391.879 778.846L346.014 888.113H312.289C312.289 888.113 333.873 803.127 350.061 777.497C366.248 751.866 393.228 621.015 393.228 621.015L379.064 712.071Z" fill="black"/>
<path d="M337.92 581.894C337.92 581.894 316.336 622.364 351.409 672.276C386.483 722.188 401.322 772.101 401.322 772.101C401.322 772.101 398.624 862.483 426.952 898.905L437.744 923.187L470.12 904.301C470.12 904.301 433.697 848.993 441.791 781.544C441.791 781.544 449.885 759.96 441.791 742.423C433.697 724.886 412.114 641.25 412.114 641.25L439.093 639.901C439.093 639.901 447.187 588.639 433.697 581.894C420.208 575.15 337.92 581.894 337.92 581.894Z" fill="#2F2E41"/>
<path d="M460.677 900.254C460.677 900.254 490.355 925.885 507.892 928.583C525.429 931.281 525.429 943.421 505.194 946.119C505.194 946.119 464.724 962.307 439.094 950.166V916.442L460.677 900.254Z" fill="#2F2E41"/>
<path d="M387.158 380.222C405.038 380.222 419.533 365.727 419.533 347.846C419.533 329.966 405.038 315.471 387.158 315.471C369.277 315.471 354.782 329.966 354.782 347.846C354.782 365.727 369.277 380.222 387.158 380.222Z" fill="#FFB8B8"/>
<path d="M360.853 409.225L365.574 400.456C365.574 400.456 301.498 422.715 308.243 433.506C314.987 444.298 333.873 460.486 333.873 460.486V482.07C333.873 482.07 354.108 544.123 333.873 579.196C313.638 614.27 444.49 603.478 440.443 579.196C436.396 554.915 431 529.284 436.396 517.143C441.792 505.003 451.235 491.513 443.141 459.137L463.375 437.553C463.375 437.553 456.631 415.97 439.094 411.923C421.557 407.876 407.393 403.154 407.393 403.154C407.393 403.154 416.161 420.017 401.322 421.366C386.483 422.715 360.853 409.225 360.853 409.225Z" fill="#F5683A"/>
<path d="M332.598 393.467C335.754 397.185 339.938 399.89 344.624 401.241C349.311 402.592 354.292 402.531 358.943 401.064C363.595 399.597 367.71 396.791 370.774 392.996C373.838 389.2 375.713 384.586 376.166 379.73C348.888 364.278 357.791 343.487 381.622 320.479C382.072 315.587 381.056 310.671 378.704 306.358C376.352 302.044 372.77 298.528 368.413 296.256C360.14 298.593 352.493 302.75 346.032 308.422C339.571 314.095 334.46 321.139 331.072 329.041L331.064 329.06L326.81 375.183C326.505 378.463 326.86 381.77 327.854 384.911C328.848 388.051 330.461 390.96 332.598 393.467Z" fill="#2F2E41"/>
<path d="M370.578 331.514L420.251 332.653L420.712 312.559C416.776 306.962 411.572 302.377 405.524 299.176L371.338 298.398L370.578 331.514Z" fill="#2F2E41"/>
<path d="M470.214 1230.08H0V950.639C17.4963 952.487 30.7298 933.938 46.6613 925.372C59.1258 918.668 73.8837 918.115 88.0345 918.034C110.846 917.912 134.075 918.708 155.672 926.047C162.607 928.386 169.262 931.485 175.516 935.287C188.898 943.435 200.121 954.874 206.084 969.227C209.686 977.888 212.276 988.504 220.896 992.214C225.698 994.292 231.188 993.55 236.369 992.781C254.566 990.056 272.764 987.335 290.962 984.619C304.425 982.596 319.223 980.842 330.716 988.14C348.442 999.391 348.455 1024.9 345.474 1045.69C342.479 1066.48 339.754 1091 355.133 1105.3C373.776 1122.65 403.764 1111.81 428.963 1115.44C440.737 1117.32 451.741 1122.48 460.704 1130.34C469.667 1138.2 476.224 1148.44 479.617 1159.87C486.119 1183.03 478.7 1207.31 470.214 1230.08Z" fill="#2F2E41"/>
<path d="M114.796 1229.42L119.155 949.747" stroke="#3F3D56" stroke-width="2" stroke-miterlimit="10"/>
<path d="M119.154 969.174C129.883 969.174 138.581 960.476 138.581 949.747C138.581 939.018 129.883 930.32 119.154 930.32C108.424 930.32 99.7266 939.018 99.7266 949.747C99.7266 960.476 108.424 969.174 119.154 969.174Z" fill="#3F3D56"/>
<path d="M117.921 1028.86C117.921 1028.86 116.076 969.129 59.0811 975.18L117.921 1028.86Z" fill="#3F3D56"/>
<path d="M114.878 1224.08C114.878 1224.08 129.155 1109.5 57.0918 1102.83" stroke="#3F3D56" stroke-width="2" stroke-miterlimit="10"/>
<path d="M57.0922 1122.26C67.8215 1122.26 76.5193 1113.56 76.5193 1102.83C76.5193 1092.1 67.8215 1083.4 57.0922 1083.4C46.3629 1083.4 37.665 1092.1 37.665 1102.83C37.665 1113.56 46.3629 1122.26 57.0922 1122.26Z" fill="#3F3D56"/>
<path d="M226.596 1229.92V1129.54" stroke="#3F3D56" stroke-width="2" stroke-miterlimit="10"/>
<path d="M226.595 1143.74C234.435 1143.74 240.791 1137.38 240.791 1129.54C240.791 1121.7 234.435 1115.35 226.595 1115.35C218.756 1115.35 212.4 1121.7 212.4 1129.54C212.4 1137.38 218.756 1143.74 226.595 1143.74Z" fill="#3F3D56"/>
<path d="M226.595 1191.41C226.595 1191.41 224.567 1147.79 182.996 1152.86L226.595 1191.41Z" fill="#3F3D56"/>
<path d="M721.705 617.642H694.726V1029.08H721.705V617.642Z" fill="#3F3D56"/>
<path d="M883.583 604.153H532.848V768.728H883.583V604.153Z" fill="#3F3D56"/>
<path d="M817.483 647.32H593.552V652.716H817.483V647.32Z" fill="#F5683A"/>
<path d="M817.483 663.508H593.552V668.904H817.483V663.508Z" fill="#F5683A"/>
<path d="M817.483 679.696H593.552V685.092H817.483V679.696Z" fill="#F5683A"/>
<path d="M708.215 623.038C718.645 623.038 727.101 614.583 727.101 604.153C727.101 593.722 718.645 585.267 708.215 585.267C697.785 585.267 689.329 593.722 689.329 604.153C689.329 614.583 697.785 623.038 708.215 623.038Z" fill="#F5683A"/>
<path d="M790.504 748.494C800.189 748.494 808.04 740.642 808.04 730.957C808.04 721.272 800.189 713.42 790.504 713.42C780.818 713.42 772.967 721.272 772.967 730.957C772.967 740.642 780.818 748.494 790.504 748.494Z" stroke="#F5683A" stroke-width="2" stroke-miterlimit="10"/>
<path d="M783.759 726.91C785.249 726.91 786.456 725.702 786.456 724.212C786.456 722.722 785.249 721.514 783.759 721.514C782.268 721.514 781.061 722.722 781.061 724.212C781.061 725.702 782.268 726.91 783.759 726.91Z" fill="#F5683A"/>
<path d="M797.248 726.91C798.738 726.91 799.946 725.702 799.946 724.212C799.946 722.722 798.738 721.514 797.248 721.514C795.758 721.514 794.55 722.722 794.55 724.212C794.55 725.702 795.758 726.91 797.248 726.91Z" fill="#F5683A"/>
<path d="M782.409 735.004C782.409 735.004 789.154 744.447 798.597 735.004H782.409Z" fill="#F5683A"/>
<path d="M783.758 714.766L797.248 695.883L803.486 719.176C803.486 719.176 797.248 710.716 783.758 714.766Z" fill="#F5683A"/>
</g>
<defs>
<clipPath id="clip0_596_1610">
<rect width="1023" height="1025.33" fill="white" transform="translate(0 204.746)"/>
</clipPath>
</defs>
</svg>
