<svg width="1230" height="1230" viewBox="0 0 1230 1230" fill="none" xmlns="http://www.w3.org/2000/svg">
<g clip-path="url(#clip0_596_1611)">
<path d="M362.577 1188.31C361.454 1188.37 360.343 1188.07 359.394 1187.47C358.445 1186.87 357.703 1185.99 357.27 1184.95C356.836 1183.92 356.732 1182.77 356.971 1181.68C357.21 1180.58 357.781 1179.58 358.606 1178.82C358.744 1178.27 358.843 1177.87 358.981 1177.32C357.907 1174.6 356.043 1172.25 353.627 1170.59C351.211 1168.93 348.354 1168.02 345.422 1168C342.49 1167.97 339.616 1168.82 337.169 1170.43C334.722 1172.05 332.814 1174.36 331.689 1177.07C325.195 1192.27 316.79 1208 320.97 1224.75C293.36 1166.23 302.75 1093.44 343.553 1043.4C354.831 1037.19 363.972 1026.15 366.352 1013.34C360.77 1015.23 353.811 1010.69 358.008 1004.81C359.827 1002.56 361.664 1000.33 363.483 998.083C342.279 975.502 317.016 1010.99 340.355 1041.47C332.72 1051.04 326.107 1061.39 320.623 1072.33C321.89 1060.71 320.378 1048.95 316.213 1038.02C311.992 1027.84 304.08 1019.26 297.113 1010.46C288.642 999.734 271.206 1004.68 270.067 1018.29C277.885 1020.86 278.9 1032.16 269.957 1033.7C272.3 1059.03 288.843 1082.3 311.628 1093.4C303.214 1117.01 299.928 1142.14 301.99 1167.12C297.968 1137.93 266.632 1130.84 244.729 1119.24C243.335 1118.35 241.711 1117.88 240.055 1117.89C238.399 1117.91 236.783 1118.4 235.403 1119.32C234.024 1120.23 232.941 1121.53 232.286 1123.05C231.632 1124.57 231.434 1126.25 231.718 1127.88C234.741 1129.11 237.634 1130.64 240.355 1132.44C241.63 1133.3 242.609 1134.53 243.157 1135.96C243.706 1137.4 243.797 1138.97 243.418 1140.46C243.039 1141.95 242.208 1143.28 241.041 1144.28C239.873 1145.28 238.425 1145.89 236.895 1146.04C247.936 1173.36 276.479 1191.71 305.795 1191.61C308.613 1203.85 312.695 1215.76 317.976 1227.16H361.486C361.643 1226.68 361.783 1226.18 361.923 1225.7C357.896 1225.95 353.852 1225.71 349.883 1224.98C360.539 1212.36 368.78 1205.93 362.578 1188.32L362.577 1188.31Z" fill="#F2F2F2"/>
<path d="M750.486 1188.31C751.609 1188.37 752.72 1188.07 753.669 1187.47C754.618 1186.87 755.36 1185.99 755.793 1184.95C756.227 1183.92 756.331 1182.77 756.092 1181.68C755.853 1180.58 755.283 1179.58 754.458 1178.82C754.319 1178.27 754.22 1177.87 754.082 1177.32C755.156 1174.6 757.021 1172.25 759.436 1170.59C761.852 1168.93 764.709 1168.02 767.641 1168C770.574 1167.97 773.447 1168.82 775.894 1170.43C778.341 1172.05 780.249 1174.36 781.374 1177.07C787.868 1192.27 796.273 1208 792.093 1224.75C819.703 1166.23 810.314 1093.44 769.511 1043.4C758.232 1037.19 749.091 1026.15 746.711 1013.34C752.293 1015.23 759.252 1010.69 755.055 1004.81C753.236 1002.56 751.399 1000.33 749.58 998.083C770.784 975.502 796.047 1010.99 772.708 1041.47C780.343 1051.04 786.956 1061.39 792.44 1072.33C791.174 1060.71 792.685 1048.95 796.85 1038.02C801.071 1027.84 808.983 1019.26 815.95 1010.46C824.422 999.734 841.857 1004.68 842.997 1018.29C835.179 1020.86 834.163 1032.16 843.106 1033.7C840.763 1059.03 824.22 1082.3 801.435 1093.4C809.849 1117.01 813.135 1142.14 811.073 1167.12C815.095 1137.93 846.431 1130.84 868.334 1119.24C869.728 1118.35 871.352 1117.88 873.008 1117.89C874.664 1117.91 876.28 1118.4 877.66 1119.32C879.039 1120.23 880.122 1121.53 880.777 1123.05C881.431 1124.57 881.629 1126.25 881.346 1127.88C878.323 1129.11 875.429 1130.64 872.708 1132.44C871.433 1133.3 870.454 1134.53 869.906 1135.96C869.358 1137.4 869.267 1138.97 869.646 1140.46C870.025 1141.95 870.855 1143.28 872.022 1144.28C873.19 1145.28 874.638 1145.89 876.168 1146.04C865.128 1173.36 836.584 1191.71 807.268 1191.61C804.45 1203.85 800.368 1215.76 795.088 1227.16H751.577C751.421 1226.68 751.28 1226.18 751.14 1225.7C755.167 1225.95 759.211 1225.71 763.18 1224.98C752.524 1212.36 744.285 1205.93 750.486 1188.31Z" fill="#F2F2F2"/>
<path d="M766.619 1194.78L747.882 1199.04L722.52 1128.79L750.176 1122.5L766.619 1194.78Z" fill="#FFB6B6"/>
<path d="M771.728 1214.17L714.105 1227.28L713.939 1226.55C712.586 1220.61 713.651 1214.36 716.9 1209.2C720.149 1204.04 725.316 1200.38 731.264 1199.02L739.973 1188.64L761.429 1192.16L766.459 1191.01L771.728 1214.17Z" fill="#2F2E41"/>
<path d="M1068.9 852.364L1079.2 868.586L1021.53 916.043L1006.32 892.099L1068.9 852.364Z" fill="#FFB6B6"/>
<path d="M1085.46 841.044L1117.14 890.93L1116.51 891.331C1111.36 894.601 1105.12 895.692 1099.16 894.363C1093.21 893.034 1088.03 889.395 1084.76 884.246L1072.06 879.523L1068.17 858.13L1065.41 853.776L1085.46 841.044Z" fill="#2F2E41"/>
<path d="M471.59 678.925L466.962 652.1L537.323 620.327L552.519 593.424C552.028 591.063 552.199 588.613 553.014 586.343C553.828 584.074 555.254 582.074 557.134 580.564C559.014 579.054 561.275 578.093 563.667 577.787C566.058 577.481 568.488 577.843 570.688 578.831C572.887 579.82 574.77 581.397 576.129 583.388C577.489 585.38 578.271 587.708 578.39 590.117C578.509 592.525 577.96 594.919 576.804 597.035C575.647 599.151 573.929 600.906 571.838 602.106L546.841 640.752L471.59 678.925Z" fill="#A0616A"/>
<path d="M450.201 656.996L481.887 640.81L490.275 672.305L468.266 688.619L450.201 656.996Z" fill="#F5683A"/>
<path d="M379.1 1192.34L398.258 1192.33L407.372 1118.44L379.096 1118.44L379.1 1192.34Z" fill="#A0616A"/>
<path d="M404.634 1194.06V1181.07L399.597 1181.38L379.094 1182.59L374.349 1182.89L370.722 1226.38L370.527 1228.72H384.131L384.568 1226.4L386.544 1215.87L391.645 1226.4L392.763 1228.72H428.829C430.975 1228.7 433.029 1227.84 434.545 1226.32C436.061 1224.81 436.917 1222.75 436.926 1220.6C438.448 1213.49 408.456 1198.12 404.634 1194.06Z" fill="#2F2E41"/>
<path d="M151.682 899.066L147.216 917.697L216.952 943.79L223.543 916.293L151.682 899.066Z" fill="#A0616A"/>
<path d="M145.568 923.494L158.198 926.523L159.073 921.553L162.672 901.332L163.495 896.65L122.041 882.98L119.818 882.247L116.646 895.476L118.796 896.441L128.572 900.817L117.146 903.323L114.634 903.87L106.224 938.942C105.737 941.032 106.094 943.23 107.218 945.058C108.342 946.887 110.142 948.198 112.226 948.708C118.785 951.846 140.724 926.263 145.568 923.494Z" fill="#2F2E41"/>
<path d="M408.724 714.074L384.064 702.546L334.886 762.059L304.932 769.635C302.784 768.54 300.374 768.06 297.97 768.249C295.567 768.437 293.262 769.286 291.31 770.702C289.358 772.118 287.836 774.046 286.911 776.273C285.987 778.5 285.695 780.939 286.07 783.321C286.444 785.703 287.47 787.935 289.033 789.771C290.597 791.606 292.637 792.974 294.929 793.723C297.221 794.472 299.675 794.573 302.021 794.014C304.367 793.456 306.513 792.26 308.221 790.558L352.084 776.619L408.724 714.074Z" fill="#A0616A"/>
<path d="M758.335 493.764C753.108 493.764 747.998 492.214 743.652 489.31C739.306 486.406 735.918 482.278 733.918 477.449C731.918 472.619 731.394 467.305 732.414 462.179C733.434 457.052 735.951 452.342 739.647 448.646C743.343 444.95 748.053 442.433 753.179 441.413C758.306 440.393 763.62 440.917 768.449 442.917C773.279 444.918 777.406 448.305 780.31 452.651C783.215 456.998 784.765 462.107 784.765 467.335C784.757 474.342 781.97 481.059 777.015 486.014C772.06 490.969 765.342 493.756 758.335 493.764ZM758.335 443.938C753.708 443.938 749.185 445.311 745.337 447.881C741.49 450.452 738.491 454.106 736.72 458.381C734.949 462.656 734.486 467.361 735.389 471.899C736.292 476.437 738.52 480.606 741.792 483.878C745.064 487.15 749.233 489.378 753.771 490.281C758.309 491.184 763.014 490.721 767.289 488.95C771.564 487.179 775.218 484.18 777.789 480.333C780.359 476.485 781.732 471.962 781.732 467.335C781.725 461.132 779.257 455.185 774.871 450.799C770.485 446.413 764.538 443.945 758.335 443.938Z" fill="#E6E6E6"/>
<path d="M756.471 477.291C756.418 477.291 756.364 477.29 756.311 477.287C755.842 477.264 755.383 477.14 754.967 476.924C754.55 476.707 754.185 476.403 753.896 476.032L749.733 470.68C749.47 470.342 749.276 469.955 749.163 469.543C749.049 469.13 749.018 468.699 749.071 468.274C749.124 467.849 749.26 467.439 749.472 467.067C749.683 466.695 749.966 466.368 750.304 466.105L750.454 465.989C750.792 465.726 751.178 465.532 751.591 465.418C752.004 465.304 752.435 465.273 752.86 465.326C753.285 465.379 753.695 465.516 754.068 465.728C754.44 465.939 754.767 466.222 755.029 466.56C755.24 466.83 755.506 467.052 755.81 467.209C756.113 467.367 756.447 467.457 756.789 467.474C757.131 467.491 757.473 467.433 757.79 467.306C758.108 467.179 758.394 466.984 758.63 466.736L767.083 457.811C767.678 457.185 768.497 456.82 769.361 456.796C770.225 456.773 771.063 457.093 771.691 457.686L771.83 457.818C772.141 458.113 772.391 458.465 772.565 458.856C772.739 459.247 772.835 459.669 772.847 460.097C772.858 460.525 772.785 460.951 772.632 461.35C772.479 461.75 772.249 462.116 771.954 462.426L758.836 476.273C758.532 476.595 758.165 476.851 757.758 477.026C757.352 477.201 756.913 477.291 756.471 477.291Z" fill="#E6E6E6"/>
<path d="M626.4 813.745C621.173 813.745 616.063 812.195 611.717 809.291C607.37 806.387 603.983 802.259 601.982 797.43C599.982 792.601 599.459 787.287 600.479 782.16C601.498 777.033 604.015 772.324 607.712 768.628C611.408 764.932 616.117 762.415 621.244 761.395C626.371 760.375 631.685 760.898 636.514 762.899C641.343 764.899 645.471 768.287 648.375 772.633C651.279 776.979 652.829 782.089 652.829 787.316C652.821 794.323 650.034 801.041 645.079 805.996C640.125 810.95 633.407 813.737 626.4 813.745ZM626.4 763.92C621.773 763.92 617.249 765.292 613.402 767.863C609.554 770.434 606.555 774.088 604.785 778.363C603.014 782.638 602.55 787.342 603.453 791.88C604.356 796.419 606.584 800.588 609.856 803.86C613.128 807.132 617.297 809.36 621.836 810.263C626.374 811.165 631.078 810.702 635.353 808.931C639.628 807.161 643.282 804.162 645.853 800.314C648.424 796.467 649.796 791.943 649.796 787.316C649.789 781.113 647.322 775.166 642.936 770.78C638.55 766.394 632.603 763.927 626.4 763.92Z" fill="#E6E6E6"/>
<path d="M624.535 797.273C624.482 797.273 624.429 797.271 624.376 797.268C623.907 797.246 623.448 797.122 623.031 796.905C622.614 796.689 622.249 796.385 621.961 796.014L617.797 790.661C617.535 790.323 617.341 789.937 617.227 789.524C617.114 789.112 617.082 788.68 617.135 788.256C617.189 787.831 617.325 787.421 617.536 787.049C617.748 786.676 618.031 786.35 618.369 786.087L618.519 785.97C618.856 785.707 619.243 785.513 619.656 785.4C620.069 785.286 620.5 785.255 620.925 785.308C621.35 785.361 621.76 785.497 622.132 785.709C622.504 785.921 622.831 786.204 623.094 786.542C623.304 786.812 623.57 787.033 623.874 787.191C624.178 787.349 624.512 787.439 624.854 787.456C625.196 787.472 625.537 787.415 625.855 787.287C626.172 787.16 626.459 786.966 626.694 786.717L635.147 777.793C635.742 777.166 636.562 776.801 637.426 776.778C638.29 776.754 639.128 777.074 639.756 777.668L639.894 777.8C640.205 778.094 640.455 778.447 640.629 778.838C640.804 779.229 640.9 779.65 640.911 780.078C640.923 780.506 640.85 780.932 640.697 781.332C640.544 781.732 640.313 782.097 640.019 782.408L626.901 796.255C626.596 796.576 626.229 796.832 625.823 797.008C625.416 797.183 624.978 797.273 624.535 797.273Z" fill="#E6E6E6"/>
<path d="M336.749 457.368C331.521 457.368 326.412 455.818 322.065 452.914C317.719 450.01 314.332 445.882 312.331 441.053C310.331 436.223 309.807 430.909 310.827 425.783C311.847 420.656 314.364 415.947 318.06 412.25C321.756 408.554 326.466 406.037 331.592 405.017C336.719 403.997 342.033 404.521 346.863 406.521C351.692 408.522 355.82 411.909 358.724 416.255C361.628 420.602 363.178 425.711 363.178 430.939C363.17 437.946 360.383 444.663 355.428 449.618C350.473 454.573 343.756 457.36 336.749 457.368ZM336.749 407.542C332.121 407.542 327.598 408.915 323.75 411.485C319.903 414.056 316.904 417.71 315.133 421.985C313.362 426.26 312.899 430.965 313.802 435.503C314.705 440.041 316.933 444.21 320.205 447.482C323.477 450.754 327.646 452.982 332.184 453.885C336.723 454.788 341.427 454.325 345.702 452.554C349.977 450.783 353.631 447.784 356.202 443.937C358.773 440.089 360.145 435.566 360.145 430.939C360.138 424.736 357.67 418.789 353.284 414.403C348.898 410.017 342.951 407.549 336.749 407.542Z" fill="#E6E6E6"/>
<path d="M334.884 440.895C334.831 440.895 334.778 440.894 334.724 440.891C334.255 440.868 333.796 440.744 333.38 440.528C332.963 440.311 332.598 440.007 332.309 439.636L328.146 434.284C327.883 433.946 327.689 433.559 327.576 433.147C327.462 432.734 327.431 432.303 327.484 431.878C327.537 431.453 327.673 431.043 327.885 430.671C328.097 430.299 328.379 429.972 328.717 429.709L328.867 429.593C329.205 429.33 329.591 429.136 330.004 429.022C330.417 428.908 330.848 428.877 331.273 428.93C331.698 428.983 332.109 429.12 332.481 429.332C332.853 429.543 333.18 429.826 333.442 430.164C333.653 430.434 333.919 430.656 334.223 430.813C334.526 430.971 334.861 431.061 335.202 431.078C335.544 431.095 335.886 431.037 336.203 430.91C336.521 430.783 336.807 430.588 337.043 430.34L345.496 421.415C346.091 420.789 346.91 420.424 347.774 420.4C348.638 420.377 349.476 420.697 350.104 421.29L350.243 421.422C350.554 421.717 350.804 422.069 350.978 422.46C351.153 422.851 351.248 423.273 351.26 423.701C351.271 424.129 351.199 424.555 351.045 424.954C350.892 425.354 350.662 425.72 350.367 426.03L337.249 439.877C336.945 440.199 336.578 440.455 336.171 440.63C335.765 440.805 335.327 440.895 334.884 440.895Z" fill="#E6E6E6"/>
<path d="M548.34 912.012C487.054 912.012 416.621 844.003 354.305 876.316C165.63 974.151 191.602 810.439 137.397 749.553L139.177 745.984C198.986 799.612 273.659 843.245 355.125 872.164C428.744 898.3 502.916 910.41 569.593 907.214L569.709 911.504C562.667 911.844 555.544 912.013 548.34 912.012Z" fill="#F2F2F2"/>
<path d="M464.271 452.194C471.346 452.194 477.082 444.503 477.082 435.016C477.082 425.529 471.346 417.838 464.271 417.838C457.196 417.838 451.461 425.529 451.461 435.016C451.461 444.503 457.196 452.194 464.271 452.194Z" fill="#E6E6E6"/>
<path d="M612.232 720.175C606.375 724.078 600.381 714.79 606.35 711.061C612.207 707.159 618.201 716.447 612.232 720.175Z" fill="#E6E6E6"/>
<path opacity="0.3" d="M636.867 482.23L731.789 205L627.558 478.911C627.043 479.561 626.69 480.325 626.528 481.139C626.367 481.953 626.402 482.794 626.63 483.591C626.859 484.389 627.274 485.12 627.842 485.726C628.41 486.331 629.114 486.791 629.895 487.07C630.677 487.349 631.513 487.437 632.336 487.328C633.158 487.218 633.943 486.914 634.624 486.441C635.306 485.968 635.865 485.339 636.255 484.607C636.645 483.874 636.855 483.06 636.867 482.23Z" fill="#F0F0F0"/>
<path d="M541.054 819.977C550.018 819.977 557.284 812.71 557.284 803.747C557.284 794.783 550.018 787.517 541.054 787.517C532.091 787.517 524.824 794.783 524.824 803.747C524.824 812.71 532.091 819.977 541.054 819.977Z" fill="#F2F2F2"/>
<path d="M383.862 809.937C383.862 809.937 343.401 836.284 354.099 853.791C354.468 854.395 305.769 918.715 305.769 918.715L213.836 912.878L210.597 943.649L292.442 967.353C292.442 967.353 312.465 982.063 327.933 965.855C343.401 949.648 394.923 900.016 394.923 900.016L397.408 1000.22L371.544 1139.08L410.162 1136.63L447.749 997.322L461.623 839.523L383.862 809.937Z" fill="#2F2E41"/>
<path d="M412.682 651.814L395.668 664.708L376.275 706.099L394.923 731.426C394.923 731.426 410.609 758.612 385.501 784.939C360.392 811.267 341.112 839.386 361.209 838.382C381.305 837.378 462.7 878.777 463.236 844.86C463.771 810.943 464.855 784.939 464.855 784.939L486.195 730.814C486.195 730.814 498.909 698.525 489.983 688.86C481.057 679.195 469.105 666.844 469.105 666.844L447.37 645.109H427.745L412.682 651.814Z" fill="#F5683A"/>
<path d="M444.444 572.287C482.615 594.007 451.279 651.318 412.396 630.91C374.226 609.19 405.563 551.879 444.444 572.287Z" fill="#A0616A"/>
<path d="M464.855 584.33C462.181 587.809 456.593 586.178 445.65 588.66C445.674 584.951 445.245 581.252 444.374 577.647C443.56 582.111 441.775 586.342 439.147 590.041C429.645 591.095 441.293 619.961 436.428 641.184C430.16 596.41 416.975 608.14 423.636 617.021C427.9 622.707 425.057 639.763 412.265 631.235C391.158 641.266 361.096 591.437 394.414 568.068C393.819 555.436 407.874 553.441 416.529 557.324C437.533 541.677 461.531 561.726 464.855 584.33Z" fill="#2F2E41"/>
<path d="M366.917 551.659C358.418 603.909 312.868 542.049 291.451 593.469C284.717 612.09 296.271 625.411 303.579 640.867C305.247 653.569 288.722 660.014 286.991 671.706C286.51 698.513 329.756 696.872 341.847 679.96C354.269 662.256 339.435 638.503 346.902 619.499C357.396 593.116 400.076 592.92 403.794 562.226C396.593 551.971 377.23 540.227 366.917 551.659Z" fill="#2F2E41"/>
<path d="M401.344 556.764C401.066 556.881 400.788 556.998 400.539 557.13H400.524C400.29 557.247 400.056 557.364 399.822 557.496C399.793 557.511 399.778 557.525 399.749 557.54C399.441 557.247 399.134 556.955 398.812 556.662C398.729 557.139 398.749 557.627 398.871 558.096L398.915 558.271C399.207 558.579 399.515 558.871 399.837 559.179C400.129 558.959 400.407 558.725 400.7 558.506C400.876 558.359 401.051 558.213 401.241 558.067C401.271 557.686 401.314 557.247 401.358 556.764L401.344 556.764ZM410.152 540.493C403.626 539.001 401.519 547.531 400.89 551.643C398.52 536.718 388.657 541.415 392.067 551.599C393.153 554.614 394.864 557.366 397.086 559.676C397.393 560.027 397.729 560.378 398.081 560.73C397.686 562.778 399.676 562.251 402.368 560.364C404.356 558.95 406.195 557.337 407.855 555.55C413.225 549.916 417.41 542.381 410.152 540.493ZM410.357 548.892C408.344 551.488 406.085 553.884 403.612 556.047C402.836 556.75 402.046 557.423 401.241 558.067C401.227 558.198 401.227 558.315 401.212 558.418C401.155 558.56 401.087 558.697 401.007 558.827C400.188 560.305 399.266 559.501 398.915 558.271C398.885 558.227 398.842 558.184 398.812 558.14C397.643 556.932 396.626 555.585 395.783 554.13C389.74 543.654 399.471 536.528 398.988 556.091C398.899 556.271 398.84 556.463 398.812 556.662C398.729 557.139 398.749 557.627 398.871 558.096L398.915 558.271C399.207 558.579 399.515 558.871 399.837 559.179C400.129 558.959 400.407 558.725 400.7 558.506C400.876 558.359 401.051 558.213 401.241 558.067C401.271 557.686 401.314 557.247 401.358 556.764V556.75C401.739 552.828 402.778 545.775 404.695 543.858C408.909 540.625 414.367 544.122 410.357 548.892ZM401.344 556.764C401.066 556.881 400.788 556.998 400.539 557.13H400.524C400.29 557.247 400.056 557.364 399.822 557.496C399.793 557.511 399.778 557.525 399.749 557.54C399.441 557.247 399.134 556.955 398.812 556.662C398.729 557.139 398.749 557.627 398.871 558.096L398.915 558.271C399.207 558.579 399.515 558.871 399.837 559.179C400.129 558.959 400.407 558.725 400.7 558.506C400.876 558.359 401.051 558.213 401.241 558.067C401.271 557.686 401.314 557.247 401.358 556.764L401.344 556.764Z" fill="#2F2E41"/>
<path d="M754.147 844.838L740.049 881.603L673.917 1012.05L732.027 1163.8L762.017 1155.89L737.299 1012.05L808.216 925.885L892.436 983.007C892.436 983.007 929.788 1012.17 943.997 984.523C958.207 956.88 1050.15 898.083 1050.15 898.083L1027.4 873.819L921.524 923.368L848.446 820.508L754.147 844.838Z" fill="#2F2E41"/>
<path d="M825.28 671.42L802.074 646.487L762.266 641.011L713.489 675.157L713.981 712.953L738.093 802.016C738.093 802.016 728.908 866.003 754.562 865.362C780.215 864.72 794.198 851.93 804.646 854.534C815.095 857.137 859.51 868.217 862.324 856.611C865.139 845.005 880.101 853.315 879.444 842.336C878.788 831.357 838.94 752.215 838.94 752.215L848.848 673.066L825.28 671.42Z" fill="#F5683A"/>
<path d="M972.216 556.65C972.424 558.718 972.176 560.806 971.489 562.767C970.803 564.729 969.694 566.516 968.242 568.002C966.79 569.489 965.03 570.639 963.085 571.372C961.141 572.105 959.059 572.402 956.987 572.244L903.621 673.738L889.293 651.743L943.841 555.955C944.338 552.492 946.088 549.331 948.76 547.072C951.432 544.813 954.84 543.613 958.337 543.699C961.835 543.785 965.18 545.15 967.738 547.537C970.296 549.924 971.889 553.167 972.216 556.65Z" fill="#FFB6B6"/>
<path d="M804.211 690.291C804.211 690.291 802.095 708.345 822.419 712.814C842.743 717.284 899.052 685.109 908.283 680.195C911.173 678.656 915.095 671.114 919.12 661.478C920.927 657.152 922.754 652.405 924.518 647.589C925.539 644.802 930.426 644.042 931.388 641.278C932.345 638.529 929.376 633.777 930.242 631.187C934.354 618.892 937.267 609.137 937.267 609.137L923.796 583.834C904.957 593.794 895.294 615.732 888.187 641.008L804.211 690.291Z" fill="#F5683A"/>
<path d="M566.849 579.958C567.165 582.011 567.928 583.971 569.084 585.698C570.24 587.425 571.76 588.878 573.538 589.954C575.315 591.03 577.308 591.703 579.374 591.926C581.44 592.149 583.53 591.916 585.496 591.244L662.564 676.153L670.931 651.272L594.148 572.183C592.8 568.954 590.314 566.333 587.162 564.814C584.01 563.296 580.41 562.987 577.045 563.945C573.68 564.903 570.784 567.063 568.905 570.014C567.025 572.965 566.294 576.503 566.849 579.958Z" fill="#FFB6B6"/>
<path d="M762.952 667.302C762.952 667.302 769.519 684.251 750.96 693.665C732.401 703.078 669.832 686.019 659.665 683.571C656.482 682.805 650.797 676.484 644.489 668.162C641.657 664.426 638.699 660.287 635.787 656.066C634.101 653.623 629.179 654.11 627.556 651.675C625.942 649.253 627.627 643.91 626.14 641.618C619.082 630.743 613.82 622.028 613.82 622.028L620.53 594.159C641.263 599.087 656.108 617.909 669.314 640.602L762.952 667.302Z" fill="#F5683A"/>
<path d="M782.964 634.668C803.883 634.668 820.84 617.71 820.84 596.792C820.84 575.873 803.883 558.916 782.964 558.916C762.046 558.916 745.088 575.873 745.088 596.792C745.088 617.71 762.046 634.668 782.964 634.668Z" fill="#FFB6B6"/>
<path d="M826.2 575.105C822.216 568.941 814.739 564.833 807.491 565.987C806.816 561.362 804.886 557.01 801.909 553.406C798.932 549.801 795.024 547.083 790.609 545.546C786.195 544.009 781.443 543.713 776.872 544.69C772.3 545.667 768.084 547.879 764.683 551.085C763.565 550.298 762.262 549.813 760.901 549.676C759.54 549.54 758.167 549.758 756.914 550.308C754.42 551.442 752.249 553.184 750.602 555.374C746.443 560.561 743.768 566.778 742.862 573.364C741.957 579.951 742.854 586.659 745.458 592.776C744.572 589.556 747.799 586.526 751.06 585.804C754.32 585.081 757.741 585.765 761.047 585.294C765.285 584.691 769.095 582.233 773.339 581.679C776.939 581.445 780.55 581.909 783.973 583.046C787.395 584.182 791.001 584.666 794.602 584.473C798.175 584.049 802.776 597.588 802.715 607.123C802.703 608.93 803.075 611.251 804.841 611.634C807.016 612.106 808.276 609.104 810.346 608.287C811.3 608.013 812.323 608.121 813.2 608.587C814.076 609.053 814.737 609.841 815.044 610.785C815.305 611.744 815.332 612.752 815.125 613.725C814.918 614.697 814.481 615.606 813.852 616.376C812.579 617.902 811.069 619.212 809.378 620.256L810.231 620.965C811.04 621.82 812.122 622.367 813.29 622.513C814.458 622.658 815.641 622.392 816.635 621.761C818.589 620.437 820.172 618.635 821.233 616.526C825.228 610.347 828.084 603.503 829.666 596.317C831.001 589.1 830.184 581.269 826.2 575.105Z" fill="#2F2E41"/>
<path d="M1106.41 724.491C1057.55 761.493 960.345 749.803 930.178 813.186C838.842 1005.09 760.703 858.906 680.733 843.097L679.996 839.177C760.052 845.817 845.923 835.515 928.325 809.382C1002.79 785.768 1069.23 750.639 1120.45 707.834L1123.14 711.184C1117.73 715.707 1112.15 720.142 1106.41 724.491Z" fill="#F2F2F2"/>
<path d="M899.852 1227.12C898.688 1230.56 234.349 1230.56 233.094 1227.12C234.256 1223.67 898.595 1223.67 899.852 1227.12Z" fill="#CCCCCC"/>
</g>
<path d="M830.252 127.119L400 127.119V307.79H830.252V127.119Z" fill="#CBCBCB"/>
<path d="M409 298.79H821.252V136.119H409V298.79Z" fill="white"/>
<path d="M757.722 194.645V264.013C757.72 264.927 757.356 265.803 756.71 266.449C756.064 267.095 755.188 267.459 754.274 267.461H679.633C678.719 267.459 677.843 267.095 677.197 266.449C676.551 265.803 676.187 264.927 676.185 264.013V194.645C676.185 193.731 676.549 192.854 677.195 192.208C677.842 191.561 678.718 191.198 679.633 191.197H754.274C755.188 191.198 756.065 191.561 756.711 192.208C757.358 192.854 757.721 193.731 757.722 194.645Z" fill="#F5683A"/>
<path d="M722.227 267.81H711.68C710.777 267.82 709.907 267.473 709.261 266.843C708.615 266.213 708.244 265.353 708.231 264.451V192.494C708.244 191.592 708.615 190.731 709.261 190.101C709.907 189.472 710.777 189.124 711.68 189.135H722.227C723.129 189.124 723.999 189.472 724.645 190.101C725.291 190.731 725.662 191.592 725.675 192.494V264.451C725.662 265.353 725.291 266.213 724.645 266.843C723.999 267.473 723.129 267.82 722.227 267.81Z" fill="#3F3D56"/>
<path d="M714.781 169.484C720.202 174.176 718.49 185.034 718.49 185.034C718.49 185.034 707.99 188.285 702.569 183.593C697.148 178.901 698.86 168.043 698.86 168.043C698.86 168.043 709.36 164.792 714.781 169.484Z" fill="#3F3D56"/>
<path d="M732.787 182.694C728.112 188.129 717.249 186.452 717.249 186.452C717.249 186.452 713.965 175.961 718.64 170.526C723.314 165.091 734.178 166.768 734.178 166.768C734.178 166.768 737.462 177.259 732.787 182.694Z" fill="#3F3D56"/>
<path opacity="0.2" d="M757.722 194.645V206.324L676.185 205.979V194.645C676.185 193.731 676.549 192.854 677.195 192.208C677.842 191.561 678.718 191.198 679.633 191.197H754.274C755.188 191.198 756.065 191.561 756.711 192.208C757.358 192.854 757.721 193.731 757.722 194.645Z" fill="black"/>
<path d="M766.502 201.745C766.179 202.17 765.762 202.513 765.284 202.749C764.806 202.985 764.28 203.106 763.747 203.104L672.88 202.723C672.427 202.721 671.979 202.63 671.562 202.455C671.144 202.28 670.765 202.024 670.446 201.702C670.127 201.381 669.875 201 669.703 200.581C669.532 200.162 669.444 199.713 669.446 199.26L669.489 189.119C669.493 188.204 669.859 187.329 670.509 186.685C671.158 186.041 672.036 185.682 672.951 185.685H672.952L763.818 186.066C764.271 186.068 764.719 186.159 765.137 186.334C765.554 186.509 765.933 186.765 766.252 187.086C766.571 187.408 766.823 187.789 766.995 188.208C767.166 188.627 767.254 189.076 767.252 189.529L767.209 199.67C767.207 200.421 766.959 201.15 766.502 201.745Z" fill="#F5683A"/>
<path d="M708.45 185.024L708.377 203.279L725.82 203.349L725.893 185.094L708.45 185.024Z" fill="#3F3D56"/>
<path d="M564.357 190.193H463.49V198.246H564.357V190.193Z" fill="#E5E5E5"/>
<path d="M619.252 219.567H463.49V227.62H619.252V219.567Z" fill="#F5683A"/>
<path d="M590.432 247.24H463.49V255.293H590.432V247.24Z" fill="#E5E5E5"/>
<path d="M847.558 255.344L436.895 127L383 299.446L793.664 427.79L847.558 255.344Z" fill="#CBCBCB"/>
<path d="M394.275 293.54L787.758 416.515L836.283 261.25L442.8 138.275L394.275 293.54Z" fill="white"/>
<path d="M758.187 298.161L737.495 364.37C737.22 365.242 736.612 365.969 735.802 366.393C734.993 366.817 734.048 366.903 733.175 366.633L661.932 344.367C661.061 344.093 660.333 343.484 659.909 342.675C659.485 341.865 659.399 340.92 659.67 340.048L680.362 273.838C680.635 272.966 681.244 272.237 682.054 271.813C682.864 271.389 683.809 271.303 684.682 271.575L755.925 293.841C756.797 294.114 757.526 294.723 757.95 295.533C758.374 296.343 758.459 297.288 758.187 298.161Z" fill="#F5683A"/>
<path d="M702.483 357.406L692.416 354.26C691.552 354.001 690.825 353.409 690.396 352.616C689.967 351.822 689.87 350.89 690.127 350.025L711.592 281.344C711.873 280.487 712.483 279.776 713.288 279.368C714.093 278.96 715.027 278.887 715.885 279.167L725.952 282.313C726.816 282.572 727.543 283.163 727.972 283.957C728.401 284.751 728.498 285.682 728.241 286.548L706.776 355.228C706.495 356.086 705.884 356.796 705.08 357.205C704.275 357.613 703.341 357.685 702.483 357.406Z" fill="#3F3D56"/>
<path d="M724.707 261.336C728.481 267.431 723.608 277.284 723.608 277.284C723.608 277.284 712.616 277.255 708.842 271.16C705.067 265.065 709.94 255.211 709.94 255.211C709.94 255.211 720.932 255.241 724.707 261.336Z" fill="#3F3D56"/>
<path d="M737.952 279.316C731.869 283.109 722 278.267 722 278.267C722 278.267 721.995 267.275 728.079 263.481C734.162 259.688 744.03 264.53 744.03 264.53C744.03 264.53 744.035 275.522 737.952 279.316Z" fill="#3F3D56"/>
<path opacity="0.2" d="M758.187 298.161L754.703 309.308L676.981 284.656L680.362 273.838C680.635 272.966 681.244 272.237 682.054 271.813C682.864 271.389 683.809 271.303 684.682 271.575L755.925 293.841C756.797 294.114 757.526 294.723 757.95 295.533C758.374 296.343 758.459 297.288 758.187 298.161Z" fill="black"/>
<path d="M764.45 307.557C764.015 307.865 763.515 308.069 762.988 308.151C762.462 308.234 761.923 308.193 761.415 308.031L674.799 280.562C674.367 280.425 673.967 280.205 673.62 279.913C673.274 279.621 672.988 279.264 672.78 278.862C672.571 278.46 672.444 278.021 672.405 277.57C672.367 277.119 672.417 276.665 672.554 276.233L675.62 266.566C675.896 265.694 676.508 264.968 677.319 264.547C678.131 264.126 679.077 264.045 679.948 264.321L679.949 264.322L766.565 291.791C766.997 291.928 767.397 292.148 767.744 292.44C768.09 292.732 768.376 293.089 768.584 293.491C768.792 293.893 768.92 294.332 768.958 294.783C768.997 295.234 768.947 295.688 768.81 296.12L765.744 305.787C765.518 306.503 765.063 307.124 764.45 307.557Z" fill="#F5683A"/>
<path d="M714.028 274.28L708.513 291.682L725.141 296.952L730.656 279.55L714.028 274.28Z" fill="#3F3D56"/>
<path d="M574.955 236.23L478.68 206.141L476.277 213.828L572.552 243.917L574.955 236.23Z" fill="#E5E5E5"/>
<path d="M618.587 280.642L469.917 234.178L467.515 241.864L616.185 288.328L618.587 280.642Z" fill="#F5683A"/>
<path d="M582.824 298.458L461.662 260.591L459.26 268.278L580.422 306.144L582.824 298.458Z" fill="#E5E5E5"/>
<defs>
<clipPath id="clip0_596_1611">
<rect width="1017.14" height="1024.7" fill="white" transform="translate(106 205)"/>
</clipPath>
</defs>
</svg>
