<svg width="600" height="400" viewBox="0 0 600 400" fill="none" xmlns="http://www.w3.org/2000/svg">
<rect width="600" height="400" fill="#D9D9D9"/>
<path d="M318.175 237.375H279.17C276.62 237.375 275.345 237.375 274.755 236.871C274.243 236.433 273.971 235.777 274.024 235.106C274.085 234.332 274.986 233.43 276.789 231.628L312.572 195.845C314.239 194.178 315.072 193.345 316.033 193.032C316.878 192.758 317.789 192.758 318.634 193.032C319.595 193.345 320.428 194.178 322.095 195.845L338.375 212.125V217.175M318.175 237.375C325.246 237.375 328.781 237.375 331.482 235.999C333.857 234.789 335.789 232.857 336.999 230.482C338.375 227.781 338.375 224.246 338.375 217.175M318.175 237.375H282.825C275.754 237.375 272.219 237.375 269.518 235.999C267.143 234.789 265.211 232.857 264.001 230.482C262.625 227.781 262.625 224.246 262.625 217.175V181.825C262.625 174.754 262.625 171.219 264.001 168.518C265.211 166.143 267.143 164.211 269.518 163.001C272.219 161.625 275.754 161.625 282.825 161.625H318.175C325.246 161.625 328.781 161.625 331.482 163.001C333.857 164.211 335.789 166.143 336.999 168.518C338.375 171.219 338.375 174.754 338.375 181.825V217.175M294.188 184.771C294.188 189.419 290.419 193.188 285.771 193.188C281.122 193.188 277.354 189.419 277.354 184.771C277.354 180.122 281.122 176.354 285.771 176.354C290.419 176.354 294.188 180.122 294.188 184.771Z" stroke="#A3A3A3" stroke-width="6.3125" stroke-linecap="round" stroke-linejoin="round"/>
</svg>
