<svg width="826" height="826" viewBox="0 0 826 826" fill="none" xmlns="http://www.w3.org/2000/svg">
<path d="M485.766 647.699V687.029L515.506 687.989L514.266 647.699H485.766Z" fill="#FFB6B6"/>
<path d="M479.886 669.579C479.486 669.579 479.086 669.629 478.706 669.739C473.336 671.269 442.276 699.009 432.886 707.469C431.726 708.519 431.106 710.009 431.196 711.569C431.276 713.119 432.056 714.529 433.316 715.439C440.436 720.569 455.036 728.689 472.736 725.409C480.876 723.899 489.096 722.949 496.356 722.119C511.886 720.329 524.146 718.909 524.146 713.419C524.146 704.089 521.586 679.519 518.366 678.489C518.076 678.399 517.736 678.629 517.346 679.169C512.426 686.059 495.506 682.399 494.786 682.239L494.596 682.199L494.486 682.039C494.396 681.909 486.116 669.599 479.886 669.599V669.579Z" fill="#2F2E41"/>
<path d="M430.136 647.699V687.029L459.866 687.989L458.626 647.699H430.136Z" fill="#FFB6B6"/>
<path d="M418.146 366.169L402.316 378.159L399.436 513.409L426.296 661.129L461.306 662.569L462.266 521.559L507.356 393.029L498.236 362.809L418.146 366.169Z" fill="#2F2E41"/>
<path d="M492.006 389.189L507.356 393.029L518.386 661.129L478.576 657.769L452.196 468.319L492.006 389.189Z" fill="#2F2E41"/>
<path d="M408.906 727.119C395.256 727.119 384.176 721.089 378.256 717.019C376.466 715.789 375.356 713.839 375.216 711.669C375.076 709.479 375.926 707.379 377.556 705.909C392.256 692.689 417.676 670.289 422.806 668.819C429.456 666.909 438.386 679.629 439.536 681.319C441.396 681.699 456.626 684.609 460.916 678.589C461.736 677.439 462.506 677.389 463.006 677.549C467.596 679.019 469.456 708.579 469.456 713.399C469.456 719.749 457.446 721.139 440.816 723.059C433.576 723.899 425.376 724.839 417.266 726.339C414.386 726.869 411.596 727.109 408.896 727.109L408.906 727.119Z" fill="#2F2E41"/>
<path d="M296.726 191.179C291.646 179.959 293.556 168.199 300.996 164.929C308.436 161.659 318.586 168.109 323.666 179.339C325.756 183.799 326.716 188.699 326.446 193.629L347.346 241.469L323.766 250.929L305.666 202.769C301.766 199.669 298.696 195.699 296.726 191.189V191.179Z" fill="#FFB6B6"/>
<path d="M441.196 211.489C453.936 223.509 453.146 244.009 439.506 254.999L372.706 308.819C365.416 314.689 354.596 312.619 349.996 304.459C332.446 276.039 329.136 274.479 318.926 245.359L347.696 235.299L363.916 255.609L399.336 213.829C410.036 201.199 429.146 200.139 441.186 211.489H441.196Z" fill="#F5683A"/>
<path d="M451.036 190.989L461.956 212.999L420.666 232.939L421.166 197.649L451.036 190.989Z" fill="#FFB6B6"/>
<path d="M420.806 207.639C441.329 207.639 457.966 191.002 457.966 170.479C457.966 149.956 441.329 133.319 420.806 133.319C400.283 133.319 383.646 149.956 383.646 170.479C383.646 191.002 400.283 207.639 420.806 207.639Z" fill="#FFB6B6"/>
<path d="M420.556 224.359L458.656 201.849C486.596 221.449 509.866 226.029 510.606 260.149L505.456 341.539L505.756 376.589C505.886 391.309 493.986 403.299 479.276 403.299H424.876C410.476 403.299 399.756 390.019 402.786 375.939L413.056 328.249L402.086 235.309L420.556 224.339V224.359Z" fill="#F5683A"/>
<path d="M208.126 177.659C208.126 175.709 209.706 174.139 211.646 174.139H251.356C253.306 174.139 254.876 175.719 254.876 177.659V178.139L352.806 183.869C353.086 182.759 354.086 181.929 355.296 181.929H365.706V174.319C365.706 172.619 367.086 171.249 368.776 171.249H370.896V164.529C370.896 163.459 371.766 162.589 372.836 162.589H378.766C379.836 162.589 380.706 163.459 380.706 164.529V171.249H382.656C382.516 170.979 382.436 170.689 382.436 170.379C382.436 168.949 384.116 167.779 386.186 167.779C388.256 167.779 389.936 168.939 389.936 170.379C389.936 170.749 389.816 171.109 389.616 171.429C390.806 171.849 391.676 172.979 391.676 174.319V213.779C391.676 215.479 390.296 216.849 388.606 216.849H368.776C367.076 216.849 365.706 215.469 365.706 213.779V208.479H355.296C353.956 208.479 352.866 207.449 352.746 206.139L254.716 224.189C254.266 225.619 252.936 226.659 251.356 226.659H211.646C209.696 226.659 208.126 225.079 208.126 223.139C207.656 207.039 208.696 191.749 208.126 177.659Z" fill="#3F3D56"/>
<path d="M361.466 202.439C356.516 191.159 358.566 179.429 366.046 176.239C373.526 173.059 383.596 179.619 388.546 190.909C390.586 195.389 391.486 200.299 391.156 205.229L411.496 253.309L387.806 262.499L370.266 214.129C366.396 210.989 363.376 206.979 361.466 202.439Z" fill="#FFB6B6"/>
<path d="M505.686 224.439C518.286 236.609 517.246 257.099 503.486 267.929L436.066 320.959C428.706 326.749 417.916 324.549 413.406 316.339C396.186 287.719 394.796 291.609 384.926 262.369L411.476 245.629L427.896 267.659L463.796 226.299C474.646 213.799 493.766 212.959 505.676 224.449H505.686V224.439Z" fill="#F5683A"/>
<path d="M459.016 189.169L452.146 194.089C452.146 194.089 450.126 172.639 447.336 171.689C444.546 170.739 440.786 175.679 440.786 175.679L438.036 183.729L428.946 179.939C428.946 179.939 418.426 174.269 414.706 172.999C410.986 171.729 411.546 160.949 411.546 160.949C411.546 160.949 366.906 167.059 373.606 141.329C373.606 141.329 375.916 122.399 380.856 126.159C385.796 129.919 385.866 120.599 385.866 120.599L397.066 118.189C397.066 118.189 412.436 97.4887 442.756 115.099C473.076 132.709 459.006 189.149 459.006 189.149V189.169H459.016Z" fill="#2F2E41"/>
</svg>
