<svg width="62" height="62" viewBox="0 0 62 62" fill="none" xmlns="http://www.w3.org/2000/svg">
<path d="M31 61.8552C48.1208 61.8552 62 48.0085 62 30.9276C62 13.8468 48.1208 0 31 0C13.8792 0 0 13.8468 0 30.9276C0 48.0085 13.8792 61.8552 31 61.8552Z" fill="#F4F4F4"/>
<path d="M32.2633 34.0825C37.8461 34.0825 42.3719 29.5673 42.3719 23.9975C42.3719 18.4278 37.8461 13.9126 32.2633 13.9126C26.6805 13.9126 22.1548 18.4278 22.1548 23.9975C22.1548 29.5673 26.6805 34.0825 32.2633 34.0825Z" fill="#FFB8B8"/>
<path d="M41.1638 17.335C41.1638 17.335 43.7957 12.3153 38.0054 11.859C38.0054 11.859 33.0691 7.39159 28.0377 11.0423C28.0377 11.0423 25.2933 11.0423 23.7925 14.1406C23.7925 14.1406 21.6341 13.3239 21.1597 15.5096C21.1597 15.5096 19.5803 20.073 21.1597 24.18C22.7391 28.287 23.2638 28.7434 23.2638 28.7434C23.2638 28.7434 22.1556 23.6468 28.4728 23.1905C34.79 22.7341 40.5855 18.7859 41.112 23.8056C41.6384 28.8252 42.2171 26.5576 42.2171 26.5576C42.2171 26.5576 47.2174 19.3885 41.1638 17.335Z" fill="#2F2E41"/>
<path d="M54.142 51.4928C48.7714 57.5896 41.213 61.3347 33.0986 61.9198C24.9841 62.5048 16.9645 59.8829 10.771 54.62L13.4299 47.2179C14.0308 45.9032 14.979 44.7765 16.173 43.9586C17.3669 43.1406 18.7614 42.6623 20.2071 42.575L21.8986 42.4714L25.9321 39.0008C25.9321 39.0008 36.8002 38.6136 36.639 38.4282L43.2221 42.3787L43.2166 42.3514L45.8045 42.5096C47.2502 42.5965 48.645 43.0747 49.8389 43.8927C51.0329 44.7107 51.9811 45.8376 52.5816 47.1525L54.142 51.4928Z" fill="black"/>
</svg>
